<svg version="1.0" xmlns="http://www.w3.org/2000/svg" viewBox="0 0 748 192"><path d="M237.6 54c-.2 0-1 .8-1.7 1.7-1.3 1.6-1.2 1.7.4.4.9-.7 1.7-1.5 1.7-1.7 0-.2-.2-.4-.4-.4zM406 60c-.5 0-1 .4-1 1 0 .5.5 1 1 1 .6 0 1-.5 1-1 0-.6-.4-1-1-1zm6.8.1c-1.6-.1-2.8.3-2.8.9 0 .5.3 1 .8.9.4 0 1.6-.4 2.7-.9 1.8-.8 1.7-.9-.7-.9zM641 72.5c-.5-.3-1 .1-1 .9 0 .9.5 1.6 1 1.6.6 0 1-.4 1-.9 0-.6-.4-1.3-1-1.6zm-111.1.5c-.5 0-.7.4-.4 1 .3.5.8 1 1.1 1 .2 0 .4-.5.4-1 0-.6-.5-1-1.1-1zm49 4c-.5 0-.7.4-.4 1 .3.5.8 1 1.1 1 .2 0 .4-.5.4-1 0-.6-.5-1-1.1-1zm-130.5 3c-.6-.6-1-.2-1.1 1.2-.2 1.6.1 1.8 1 .9.7-.7.8-1.4.1-2.1zm-21.6 0c-.5 0-.8 1.1-.8 2.5s.4 2.5.9 2.5.8-1.1.7-2.5c0-1.4-.4-2.5-.8-2.5zm-175.6 1c-.3 0 .3.9 1.3 2s2 2 2.3 2c.3 0-.3-.9-1.3-2s-2-2-2.3-2zM412 90c-.5 0-1 .5-1 1.1 0 .5.5.7 1 .4.6-.3 1-.8 1-1.1 0-.2-.4-.4-1-.4zm91 3c-.5 0-1 .5-1 1.1 0 .5.5.7 1 .4.6-.3 1-.8 1-1.1 0-.2-.4-.4-1-.4zm-78 22.3c-2.5 0-3.5.2-2.2.4 1.2.2 3.2.2 4.5 0 1.2-.2.2-.4-2.3-.4zm-5.9.7c-.4 0-1.8 1.1-3.1 2.5s-2.2 2.6-1.9 2.8c.2.1 1.6-1 3.1-2.5s2.3-2.8 1.9-2.8zm195.5 5.3c-.3-.4-.6.2-.5 1.3 0 1.1.3 1.4.6.6.3-.7.2-1.6-.1-1.9zm-194.1 2c-2.2 0-3 .2-1.7.4 1.2.2 3 .2 4 0 .9-.3-.1-.5-2.3-.4zM92.4 146c-.2 0-.4.2-.4.4s.8 1 1.8 1.7c1.5 1.3 1.6 1.2.3-.4-.7-.9-1.5-1.7-1.7-1.7zm384.3 21c-.2 0-1.2 1-2.3 2.2l-1.9 2.3 2.3-1.9c1.2-1.1 2.2-2.1 2.2-2.3 0-.1-.2-.3-.3-.3zm-53 9c-.2 0-1.2 1-2.3 2.2l-1.9 2.3 2.3-1.9c1.2-1.1 2.2-2.1 2.2-2.3 0-.1-.2-.3-.3-.3z" fill="none"/><path d="M61.7 105.7c-.3-.6-.5-.1-.5 1.3 0 1.4.2 1.9.5 1.2.2-.6.2-1.8 0-2.5zM427.9 116c-.5 0-.9.2-.9.4s.7.7 1.6 1c.8.3 1.2.2.9-.4-.3-.6-1-1-1.6-1zm186.7 1.3c-.3-.4-.6.2-.5 1.3 0 1.1.3 1.4.6.6.3-.7.2-1.6-.1-1.9zm-181.8 3.6c-.3-.8-.7-.3-1.1 1-.4 1.7-.3 2.1.5 1.3.5-.5.8-1.6.6-2.3zm-280.2 1.4c-.3-.4-.6.2-.5 1.3 0 1.1.3 1.4.6.6.3-.7.2-1.6-.1-1.9zm-93 1c-.3-.4-.6.2-.5 1.3 0 1.1.3 1.4.6.6.3-.7.2-1.6-.1-1.9zM426.4 72c-.2 0-.4.2-.4.4s.8 1 1.8 1.7c1.5 1.3 1.6 1.2.3-.4-.7-.9-1.5-1.7-1.7-1.7zm2.5 46c-.5 0-.9.2-.9.4s.7.7 1.6 1c.8.3 1.2.2.9-.4-.3-.6-1-1-1.6-1z" fill="#FFF" fill-opacity=".02"/><path d="M9.6 39c-.2 0-1 .8-1.7 1.7-1.3 1.6-1.2 1.7.4.4.9-.7 1.7-1.5 1.7-1.7 0-.2-.2-.4-.4-.4zm203 5c-.2 0-.6 1.1-.8 2.5-.3 1.4-.2 2.7.1 3 .4.2.8-1 .9-2.6.1-1.6.1-2.9-.2-2.9zm192.2 16.1c-.2.1-1.1.3-2 .6-1 .2-1.8.8-1.8 1.3 0 .4.9.6 2 .3s2-.9 2-1.4c0-.5-.1-.8-.2-.8zm20.9 14.2c-.2-.5-.2-.2 0 .5.1.8.3 2.2.3 3.3 0 1 .4 1.9.8 1.9.5 0 .9-1.4 1-3 0-1.7-.3-2.8-.8-2.5-.4.3-1 .2-1.3-.2zM413.1 82c-.6 0-1.3.4-1.6 1-.3.6.1.7.9.4.9-.3 1.6-.8 1.6-1 0-.2-.4-.4-.9-.4zm-151.5 3c-.2 0-1 .8-1.7 1.7-1.3 1.6-1.2 1.7.4.4.9-.7 1.7-1.5 1.7-1.7 0-.2-.2-.4-.4-.4zm-50.2 6.1c-1.1 0-1.4.3-.6.6.7.3 1.6.2 1.9-.1.4-.3-.2-.6-1.3-.5zM409 97c-.5 0-1 .4-1 1 0 .5.5 1 1 1 .6 0 1-.5 1-1 0-.6-.4-1-1-1zm6.4 24c-.2 0-.4.4-.4.9 0 .6.4 1.3 1 1.6.6.3.7-.1.4-.9-.3-.9-.8-1.6-1-1.6zm-230 25c-.2 0-.4.2-.4.4s.8 1 1.8 1.7c1.5 1.3 1.6 1.2.3-.4-.7-.9-1.5-1.7-1.7-1.7z" fill="#FFF" fill-opacity=".01"/><path d="M248.4 5.1c-1.1 0-1.4.3-.6.6.7.3 1.6.2 1.9-.1.4-.3-.2-.6-1.3-.5zM227.7 14c-.2 0-1.2 1-2.3 2.2l-1.9 2.3 2.3-1.9c1.2-1.1 2.2-2.1 2.2-2.3 0-.1-.2-.3-.3-.3zm-13 32.7c-.3-.6-.5-.1-.5 1.3 0 1.4.2 1.9.5 1.2.2-.6.2-1.8 0-2.5z" fill="#3C3"/><path d="M247.8 6c-1.8 0-5.9 1.1-9.1 2.4-3.1 1.3-7.4 3.6-9.3 5.1-2 1.6-5 4.8-6.8 7.2-1.7 2.5-3.9 6.6-5 9.1-1.3 3.4-2 8.1-2.3 16.7-.2 6.9 0 12.6.6 13.4.8 1.2 1.8 1.3 6.3.2 3-.6 7.4-2.7 10-4.6 2.7-1.9 6.3-5.6 8.2-8.3 1.9-2.6 4.7-8.2 6.1-12.5 1.4-4.3 3-11.1 3.5-15 .5-4 1-8.7 1-10.5 0-3-.2-3.2-3.2-3.2z" fill="#0C0"/><path d="M415.7 81.7c-.3-.6-.5-.1-.5 1.3 0 1.4.2 1.9.5 1.2.2-.6.2-1.8 0-2.5zm52.9 33.6c-.3-.4-.6.2-.5 1.3 0 1.1.3 1.4.6.6.3-.7.2-1.6-.1-1.9zm57 13c-.3-.4-.6.2-.5 1.3 0 1.1.3 1.4.6.6.3-.7.2-1.6-.1-1.9zm-57 23c-.3-.4-.6.2-.5 1.3 0 1.1.3 1.4.6.6.3-.7.2-1.6-.1-1.9z" fill="#303"/><path d="M678 12.7c-1.1-.3-2.3 0-2.7.6-.4.7-1.5 4.2-2.5 8-.9 3.7-2.6 11.8-3.7 18-1.1 6.1-2.1 13.3-2.4 15.9-.3 3.6-.1 4.8 1.1 5 .8.2-3.7.4-9.9.5-6.3.1-12.7.6-14.3 1-1.6.5-3.4 1.7-4 2.6-.8 1.2-.8 2.2 0 3.5.6.9 2.4 2.5 4 3.4 1.7 1 6.7 2.1 11.7 2.6 8.1.7 8.7.7 8.1-1-.3-1-.1-1.8.5-1.8s.8 2.6.5 6.7c-.2 3.8-.6 10.7-.8 15.5-.2 5.8 0 8.9.8 9.1.6.2.7.8.3 1.3-.4.5-1.2.2-1.7-.5-.4-.8-2.5-2-4.5-2.7-2.1-.7-4.5-1-5.4-.7-1.1.3-1.2.2-.3-.4.9-.7.4-1.6-2-3.3-1.8-1.4-3.7-2.4-4.1-2.2-.5.1-.6-.1-.4-.5.2-.5-1.4-4.6-3.7-9.3-3.2-6.6-4.7-8.7-6.9-9.4-1.7-.6-3.1-.6-3.7 0-.5.5-2.9 8.8-5.3 18.4-2.5 9.6-6.4 25.5-8.7 35.2-3 12.7-4.6 17.8-5.6 17.8s-1.4-1.5-1.4-5.8c0-3.1.5-16.3 1-29.3.7-18.2 1.3-24.4 2.5-27 1.3-2.6 1.4-4 .6-6.2-.6-1.5-2.3-3.2-3.8-3.8-2.2-.8-3.2-.6-5.2.9-1.7 1.2-3.4 4.3-4.8 8.7-1.3 3.8-3 12-3.8 18.4-.8 6.4-1.7 19.3-1.8 28.8-.3 12.8-.7 17.7-1.8 19-.7 1-2.4 2.8-3.8 4.1-1.3 1.3-3.3 2.2-4.5 2-1.5-.2-2.7-1.8-4.3-5.9-1.3-3.1-2.8-10.1-3.4-15.5-.6-5.5-.8-15.3-.5-21.9.3-6.6.8-16.3 1.2-21.6.7-9.5.7-9.7-1.6-10.4-1.8-.6-2.8-.2-4.2 1.5-1 1.2-2.7 5.1-3.8 8.6-1.1 3.6-2.2 9.5-2.6 13.2-.3 3.7-1.4 10.1-2.5 14.2-1 4.1-3 10.4-4.5 14-1.4 3.6-3.9 9.4-5.6 13-1.6 3.6-4.1 8.3-5.6 10.5-1.4 2.2-4.4 5.9-6.6 8.3-3.3 3.5-3.8 4.4-2.6 5.2 1 .6.6.9-1.5.8-1.7 0-3.4.1-4 .2-.5.1-1.6.2-2.2.1-.7 0-1.9-1.6-2.7-3.5-.8-1.9-1.9-6.6-2.5-10.4-.6-3.9-1.1-11.7-1.1-17.4 0-5.7.7-14.6 1.4-19.8.8-5.2 2.6-14.9 4.1-21.5 1.5-6.6 2.9-12.3 3.2-12.7.2-.4-.3-2.3-1.2-4.2-1-2-2.9-3.9-4.7-4.7-2-.8-3.8-.9-5.6-.3-1.5.5-3.7 2.7-4.9 4.9-1.3 2.2-3.2 6.9-4.2 10.5-1.1 3.6-2.5 10.3-3.2 14.9-.7 5.2-1 13.4-.6 21.5s1.4 16 2.6 20.6c1 4.1 2.5 8.8 3.1 10.5.6 1.6 2.7 5.4 4.6 8.3 2 2.9 5.2 6.4 7.2 7.7 2 1.3 4.4 2.4 5.2 2.5.8.2 2.5.2 3.7.1 1.2 0 3.7-1.4 5.6-3.1 1.9-1.6 4.8-5.6 6.6-8.9 1.7-3.3 4.3-9.1 5.7-12.8 1.4-3.7 3.6-9.7 4.9-13.3 1.3-3.7 3-6.6 3.9-6.8 1-.2 1.8.7 2.2 2.5.3 1.5 1 4.5 1.6 6.7.5 2.1 2.1 6.3 3.5 9.4 1.3 3 4.6 7.6 7.3 10.2 3.2 3.2 6.2 5.1 9.4 6 3.6 1 5.3 1 7.2.1 1.4-.6 2.9-1.1 3.3-1.1.4 0 1.4 3.2 2.1 7.1 1 6.1 1.8 7.7 5 10.9 2 2 5 4 6.5 4.4 1.5.4 3.1.3 3.5-.1.4-.4 2.4-9.8 4.4-20.8 2.1-11 4.2-21.4 4.6-23 .5-1.7 1.4-6.1 2-9.9 1.1-5.7 1-7-.1-7.8-1.1-.8-1.1-.9.2-.5 1.2.4 1.8-.3 2.2-2.6.3-1.8 1.3-6.4 2.2-10.2.8-3.9 2.2-10.4 3.1-14.5.9-4.1 2.2-8.6 2.9-10 .8-1.4 1.4-1.9 1.5-1.3 0 .7 1.7 3.2 3.8 5.5 2 2.3 6.3 5.9 9.6 7.9 3.2 2.1 7.4 4.1 9.2 4.5l3.4.6v6.3c0 3.5.5 10.9 1 16.6.6 5.7 1.7 13.4 2.5 17.2.9 3.7 2.6 9.6 3.9 13.1 1.3 3.5 3.5 8.1 4.9 10.2 1.3 2.2 4.3 5.6 6.5 7.6s5.3 4.3 6.9 5.1c1.5.8 4.7 1.8 6.9 2.2 2.4.3 6 .1 8.5-.5 2.4-.7 6.2-2.5 8.5-4.1 2.3-1.5 5.8-4.5 7.7-6.6 2-2.1 5.4-6.3 7.7-9.3 2.3-3 7.6-12.5 11.8-21l7.7-15.5.2-9c.2-7.4.1-8.6-.9-6.5-.6 1.4-3.3 7.2-6.1 13-2.7 5.8-7.3 14.2-10.3 18.6-3 4.5-8.6 11.6-12.5 15.8-4 4.3-9.1 9-11.4 10.6-2.3 1.6-6.2 3.4-8.7 4-3.8 1-5.1.9-7.7-.5-1.8-.9-4.1-3-5.2-4.8-1.1-1.8-2.8-6.1-3.9-9.7-1.1-3.6-2.4-11.5-3-17.5-.5-6.1-1-17-1-24.3 0-8.6-.4-13.2-1.1-13.2-.5 0-.7-.5-.3-1.1.5-.8.9-.8 1.4.1.5.8 1.2.7 2.4-.5.9-.9 1.6-2.3 1.6-3.2 0-.8-1-1.7-2.1-2-2-.6-2.1-1-1.5-7.7.3-3.9.9-9.3 1.2-11.9.4-2.9 1.3-5.1 2.3-5.6.9-.5 9-1.6 18-2.6 9-.9 17.4-2 18.7-2.5 1.3-.5 2.4-1.4 2.4-1.9s-1.2-1.9-2.7-3.1c-2.6-2-3.6-2.1-20.4-1.8-9.8.2-17.4.1-17-.2.3-.3.8-3.2.9-6.5.2-3.3.7-9.8 1.2-14.5.6-4.7 1-11.1 1-14.3 0-3.2-.7-7.1-1.5-8.6-.8-1.6-2.3-3.1-3.5-3.4zM675.4 24c.3 0 .8.4 1.1 1 .3.5.1 1-.4 1-.6 0-1.1-.5-1.1-1 0-.6.2-1 .4-1zm-3.4 8c.6 0 1 .4 1 1 0 .5-.4 1-1 1-.5 0-1-.5-1-1 0-.6.5-1 1-1zm4 0c.6 0 1 .4 1 1 0 .5-.4 1-1 1-.5 0-1-.5-1-1 0-.6.5-1 1-1zm-4 4c.6 0 1 .4 1 1 0 .5-.4 1-1 1-.5 0-1-.5-1-1 0-.6.5-1 1-1zm4 0c.6 0 1 .4 1 1 0 .5-.4 1-1 1-.5 0-1-.5-1-1 0-.6.5-1 1-1zm-4 4c.6 0 1 .2 1 .4 0 .3-.4.8-1 1.1-.5.3-1 .1-1-.4 0-.6.5-1.1 1-1.1zm4 0c.6 0 1 .2 1 .4 0 .3-.4.8-1 1.1-.5.3-1 .1-1-.4 0-.6.5-1.1 1-1.1zm0 4c.6 0 1 .2 1 .4 0 .3-.4.8-1 1.1-.5.3-1 .1-1-.4 0-.6.5-1.1 1-1.1zm-19.4 19c.2 0 .4.4.4 1 0 .5-.5 1-1.1 1-.5 0-.7-.5-.4-1 .3-.6.8-1 1.1-1zm4 0c.2 0 .4.4.4 1 0 .5-.5 1-1.1 1-.5 0-.7-.5-.4-1 .3-.6.8-1 1.1-1zm3.4 0c.6 0 1 .4 1 1 0 .5-.4 1-1 1-.5 0-1-.5-1-1 0-.6.5-1 1-1zm4 0c.6 0 1 .4 1 1 0 .5-.4 1-1 1-.5 0-1-.5-1-1 0-.6.5-1 1-1zm7.4 0c.3 0 .8.4 1.1 1 .3.5.1 1-.4 1-.6 0-1.1-.5-1.1-1 0-.6.2-1 .4-1zm20.2 0c.2 0 .4.4.4 1 0 .5-.5 1-1.1 1-.5 0-.7-.5-.4-1 .3-.6.8-1 1.1-1zm7.4 0c.6 0 1 .4 1 1 0 .5-.4 1-1 1-.5 0-1-.5-1-1 0-.6.5-1 1-1zm4 0c.6 0 1 .4 1 1 0 .5-.4 1-1 1-.5 0-1-.5-1-1 0-.6.5-1 1-1zm7.4 0c.2 0 .9.7 1.6 1.5 1.1 1.3 1 1.4-.4.9-.9-.3-1.6-1-1.6-1.5s.2-.9.4-.9zm-57.8 4c.2 0 .4.4.4 1 0 .5-.5 1-1.1 1-.5 0-.7-.5-.4-1 .3-.6.8-1 1.1-1zm3.4 0c.6 0 1 .4 1 1 0 .5-.4 1-1 1-.5 0-1-.5-1-1 0-.6.5-1 1-1zm4 0c.6 0 1 .4 1 1 0 .5-.4 1-1 1-.5 0-1-.5-1-1 0-.6.5-1 1-1zm4 0c.6 0 1 .4 1 1 0 .5-.4 1-1 1-.5 0-1-.5-1-1 0-.6.5-1 1-1zm3.4 0c.3 0 .8.4 1.1 1 .3.5.1 1-.4 1-.6 0-1.1-.5-1.1-1 0-.6.2-1 .4-1zm-15.5 4c.6 0 1.1.4 1.1 1 0 .5-.2 1-.4 1-.3 0-.8-.5-1.1-1-.3-.6-.1-1 .4-1zm4.1 0c.6 0 1 .4 1 1 0 .5-.4 1-1 1-.5 0-1-.5-1-1 0-.6.5-1 1-1zm8 0c.6 0 1 .4 1 1 0 .5-.4 1-1 1-.5 0-1-.5-1-1 0-.6.5-1 1-1zm4 0c.6 0 1 .4 1 1 0 .5-.4 1-1 1-.5 0-1-.5-1-1 0-.6.5-1 1-1zm4 0c.6 0 1 .4 1 1 0 .5-.4 1-1 1-.5 0-1-.5-1-1 0-.6.5-1 1-1zm-8 4c.6 0 1 .4 1 1 0 .5-.4 1-1 1-.5 0-1-.5-1-1 0-.6.5-1 1-1zm4 0c.6 0 1 .4 1 1 0 .5-.4 1-1 1-.5 0-1-.5-1-1 0-.6.5-1 1-1zm4 0c.6 0 1 .4 1 1 0 .5-.4 1-1 1-.5 0-1-.5-1-1 0-.6.5-1 1-1zm-147.5 3c.3 0 .2.7-.2 1.5-.3.9-.8 1.4-1 1.1-.3-.3-.2-.9.2-1.5.3-.6.8-1.1 1-1.1zm76.5 1c.6 0 1 .4 1 1 0 .5-.4 1-1 1-.5 0-1-.5-1-1 0-.6.5-1 1-1zm7.9 0c.6 0 1.1.4 1.1 1 0 .5-.2 1-.4 1-.3 0-.8-.5-1.1-1-.3-.6-.1-1 .4-1zm20.1 0c.6 0 1 .2 1 .4 0 .3-.4.8-1 1.1-.5.3-1 .1-1-.4 0-.6.5-1.1 1-1.1zm35 0c.6 0 1 .4 1 1 0 .5-.4 1-1 1-.5 0-1-.5-1-1 0-.6.5-1 1-1zm4 0c.6 0 1 .4 1 1 0 .5-.4 1-1 1-.5 0-1-.5-1-1 0-.6.5-1 1-1zm4 0c.6 0 1 .2 1 .4 0 .3-.4.8-1 1.1-.5.3-1 .1-1-.4 0-.6.5-1.1 1-1.1zm-145.1 4c.6 0 1.1.4 1.1 1 0 .5-.2 1-.4 1-.3 0-.8-.5-1.1-1-.3-.6-.1-1 .4-1zM633 83c.6 0 1 .2 1 .4 0 .3-.4.8-1 1.1-.5.3-1 .1-1-.4 0-.6.5-1.1 1-1.1zm35 0c.6 0 1 .4 1 1 0 .5-.4 1-1 1-.5 0-1-.5-1-1 0-.6.5-1 1-1zm4 0c.6 0 1 .2 1 .4 0 .3-.4.8-1 1.1-.5.3-1 .1-1-.4 0-.6.5-1.1 1-1.1zm-97.4 23c.2 0 .4.4.4 1 0 .5-.5 1-1.1 1-.5 0-.7-.5-.4-1 .3-.6.8-1 1.1-1zm51 0c.2 0 .4.4.4 1 0 .5-.5 1-1.1 1-.5 0-.7-.5-.4-1 .3-.6.8-1 1.1-1zm42.4 0c.6 0 1 .4 1 1 0 .5-.4 1-1 1-.5 0-1-.5-1-1 0-.6.5-1 1-1zm-94 4c.6 0 1 .4 1 1 0 .5-.4 1-1 1-.5 0-1-.5-1-1 0-.6.5-1 1-1zm51 0c.6 0 1 .4 1 1 0 .5-.4 1-1 1-.5 0-1-.5-1-1 0-.6.5-1 1-1zm43 0c.6 0 1 .4 1 1 0 .5-.4 1-1 1-.5 0-1-.5-1-1 0-.6.5-1 1-1zm4 0c.6 0 1 .4 1 1 0 .5-.4 1-1 1-.5 0-1-.5-1-1 0-.6.5-1 1-1zm-98 4c.6 0 1 .4 1 1 0 .5-.4 1-1 1-.5 0-1-.5-1-1 0-.6.5-1 1-1zm51 0c.6 0 1 .4 1 1 0 .5-.4 1-1 1-.5 0-1-.5-1-1 0-.6.5-1 1-1zm43 0c.6 0 1 .4 1 1 0 .5-.4 1-1 1-.5 0-1-.5-1-1 0-.6.5-1 1-1zm4 0c.6 0 1 .4 1 1 0 .5-.4 1-1 1-.5 0-1-.5-1-1 0-.6.5-1 1-1zm-98 4c.6 0 1 .4 1 1 0 .5-.4 1-1 1-.5 0-1-.5-1-1 0-.6.5-1 1-1zm51 0c.6 0 1 .4 1 1 0 .5-.4 1-1 1-.5 0-1-.5-1-1 0-.6.5-1 1-1zm43 0c.6 0 1 .4 1 1 0 .5-.4 1-1 1-.5 0-1-.5-1-1 0-.6.5-1 1-1zm4 0c.6 0 1 .4 1 1 0 .5-.4 1-1 1-.5 0-1-.5-1-1 0-.6.5-1 1-1zm74 0c.6 0 1 .4 1 1 0 .5-.4 1-1 1-.5 0-1-.5-1-1 0-.6.5-1 1-1zm-.4 3.7c.7.3 1.4.9 1.4 1.4 0 .5-.4.9-.9.9s-1.1-.7-1.4-1.4c-.4-1-.1-1.3.9-.9zM574 122c.6 0 1 .4 1 1 0 .5-.4 1-1 1-.5 0-1-.5-1-1 0-.6.5-1 1-1zm47 0c.6 0 1 .4 1 1 0 .5-.4 1-1 1-.5 0-1-.5-1-1 0-.6.5-1 1-1zm4 0c.6 0 1 .4 1 1 0 .5-.4 1-1 1-.5 0-1-.5-1-1 0-.6.5-1 1-1zm43 0c.6 0 1 .4 1 1 0 .5-.4 1-1 1-.5 0-1-.5-1-1 0-.6.5-1 1-1zm4 0c.6 0 1 .4 1 1 0 .5-.4 1-1 1-.5 0-1-.5-1-1 0-.6.5-1 1-1zm-98.1 4c.6 0 1.1.4 1.1 1 0 .5-.2 1-.4 1-.3 0-.8-.5-1.1-1-.3-.6-.1-1 .4-1zm47.1 0c.6 0 1 .4 1 1 0 .5-.4 1-1 1-.5 0-1-.5-1-1 0-.6.5-1 1-1zm47 0c.6 0 1 .4 1 1 0 .5-.4 1-1 1-.5 0-1-.5-1-1 0-.6.5-1 1-1zm-93.4 23c.2 0 .4.4.4 1 0 .5-.5 1-1.1 1-.5 0-.7-.5-.4-1 .3-.6.8-1 1.1-1zm3.3 0c.6 0 1.3.4 1.6 1 .3.5-.1 1-.9 1-.9 0-1.6-.5-1.6-1 0-.6.4-1 .9-1zm35.7 0c.2 0 .4.4.4 1 0 .5-.5 1-1.1 1-.5 0-.7-.5-.4-1 .3-.6.8-1 1.1-1zm4 0c.2 0 .4.4.4 1 0 .5-.5 1-1.1 1-.5 0-.7-.5-.4-1 .3-.6.8-1 1.1-1zm53.8 0c.3 0 .8.4 1.1 1 .3.5.1 1-.4 1-.6 0-1.1-.5-1.1-1 0-.6.2-1 .4-1zm4 0c.3 0 .8.4 1.1 1 .3.5.1 1-.4 1-.6 0-1.1-.5-1.1-1 0-.6.2-1 .4-1zm59.4.5c.3.3 0 1.1-.7 1.8-1 .9-1.1.8-.5-.6.3-1 .9-1.5 1.2-1.2zM574 153c.6 0 1 .4 1 1 0 .5-.4 1-1 1-.5 0-1-.5-1-1 0-.6.5-1 1-1zm4 0c.6 0 1 .4 1 1 0 .5-.4 1-1 1-.5 0-1-.5-1-1 0-.6.5-1 1-1zm15.1 0c.5 0 .9.4.9 1 0 .5-.7 1-1.6 1-.8 0-1.2-.5-.9-1 .3-.6 1-1 1.6-1zm23.9 0c.6 0 1 .4 1 1 0 .5-.4 1-1 1-.5 0-1-.5-1-1 0-.6.5-1 1-1zm55 0c.6 0 1 .4 1 1 0 .5-.4 1-1 1-.5 0-1-.5-1-1 0-.6.5-1 1-1zm54 0c.6 0 1 .4 1 1 0 .5-.4 1-1 1-.5 0-1-.5-1-1 0-.6.5-1 1-1zm-148 4c.6 0 1 .4 1 1 0 .5-.4 1-1 1-.5 0-1-.5-1-1 0-.6.5-1 1-1zm4 0c.6 0 1 .4 1 1 0 .5-.4 1-1 1-.5 0-1-.5-1-1 0-.6.5-1 1-1zm8 0c.6 0 1 .4 1 1 0 .5-.4 1-1 1-.5 0-1-.5-1-1 0-.6.5-1 1-1zm4 0c.6 0 1 .4 1 1 0 .5-.4 1-1 1-.5 0-1-.5-1-1 0-.6.5-1 1-1zm19 0c.6 0 1 .4 1 1 0 .5-.4 1-1 1-.5 0-1-.5-1-1 0-.6.5-1 1-1zm4 0c.6 0 1 .4 1 1 0 .5-.4 1-1 1-.5 0-1-.5-1-1 0-.6.5-1 1-1zm55 0c.6 0 1 .4 1 1 0 .5-.4 1-1 1-.5 0-1-.5-1-1 0-.6.5-1 1-1zm4 0c.6 0 1 .4 1 1 0 .5-.4 1-1 1-.5 0-1-.5-1-1 0-.6.5-1 1-1zm46.6 0c.2 0 .4.4.4 1 0 .5-.5 1-1.1 1-.5 0-.7-.5-.4-1 .3-.6.8-1 1.1-1zm-174.9 2.4c.3.3.3 1.3-.1 2.2-.4.9-.9 1.5-1.1 1.2-.3-.3-.3-1.3.1-2.2.4-.9.9-1.5 1.1-1.2zm-28.8 1.6c.6 0 1.1.4 1.1 1 0 .5-.2 1-.4 1-.3 0-.8-.5-1.1-1-.3-.6-.1-1 .4-1zm63.1 0c.6 0 1 .7 1 1.6 0 .8-.4 1.2-1 .9-.5-.3-1-1-1-1.6 0-.5.5-.9 1-.9zm4 0c.6 0 1 .4 1 1 0 .5-.4 1-1 1-.5 0-1-.5-1-1 0-.6.5-1 1-1zm4 0c.6 0 1 .4 1 1 0 .5-.4 1-1 1-.5 0-1-.5-1-1 0-.6.5-1 1-1zm23 0c.6 0 1 .4 1 1 0 .5-.4 1-1 1-.5 0-1-.5-1-1 0-.6.5-1 1-1zm4 0c.6 0 1 .4 1 1 0 .5-.4 1-1 1-.5 0-1-.5-1-1 0-.6.5-1 1-1zm59 0c.6 0 1 .4 1 1 0 .5-.4 1-1 1-.5 0-1-.5-1-1 0-.6.5-1 1-1zm51 0c.6 0 1 .2 1 .4 0 .3-.4.8-1 1.1-.5.3-1 .1-1-.4 0-.6.5-1.1 1-1.1zm-184 4c.6 0 1 .4 1 1 0 .5-.4 1-1 1-.5 0-1-.5-1-1 0-.6.5-1 1-1zm69.9 0c.6 0 1.1.4 1.1 1 0 .5-.2 1-.4 1-.3 0-.8-.5-1.1-1-.3-.6-.1-1 .4-1zm102.1 0c.6 0 1 .2 1 .4 0 .3-.4.8-1 1.1-.5.3-1 .1-1-.4 0-.6.5-1.1 1-1.1zM407.4 64c-.5.1-2.6.7-4.8 1.5-2.1.7-5.4 2.8-7.3 4.7-1.9 1.8-5.3 6.3-7.5 10s-5.1 10.2-6.4 14.4c-1.3 4.2-3.1 12.4-4 18.3-1.2 8-1.5 14.2-1.1 25.1.4 11.2 1 16 2.7 21 1.2 3.6 2.8 7.6 3.5 9 .7 1.4 3.3 4.4 5.7 6.7 2.4 2.2 6.1 5 8.3 6.2 2.2 1.2 5.6 2.1 7.5 2.1 1.9 0 5.2-.5 7.2-1 2-.6 5.7-3 8.3-5.3 2.5-2.3 7.8-8.6 11.9-14 4-5.4 8.8-12.4 10.7-15.7 1.9-3.4 4-5.9 4.8-5.7.8.1 1.5 1.5 1.7 3.2.1 1.6.6 4.9.9 7.3.3 2.3 1.7 7.3 2.9 11 1.3 3.7 3.2 8.5 4.4 10.7 1.1 2.2 3.3 5.2 4.9 6.6 1.5 1.5 4.4 3.6 6.3 4.8 1.9 1.1 4.8 2.1 6.3 2.1s4.1-.6 5.6-1.4c1.5-.8 3.9-3 5.3-4.8 1.4-1.8 3.7-5.7 5.2-8.6 1.5-2.9 4-8.8 5.6-13 1.7-4.2 3.5-10.3 4.1-13.5 1-4.9 1-6.1-.2-6.9-1.1-.8-1.1-.9.3-.5 1.4.5 1.8-.4 2.4-5.1.4-3.1.8-10.4.7-16.2 0-6.5-.6-13-1.7-16.9-.9-3.5-2.8-8.5-4.2-11.2-1.5-2.6-4-6.1-5.6-7.8-1.6-1.6-4.5-3.5-6.4-4.1-2-.7-5.1-.9-7-.5-1.9.3-5 2-7 3.7l-3.5 3.1-2.2-2.1c-1.2-1.1-3.4-2.5-4.9-3.1-1.9-.7-3.7-.7-5.4-.1-1.6.6-3.2 2.6-4.4 5.4-1.1 2.4-2.4 7.4-3 11.2-.5 3.8-1 12.3-1 18.9v12l-5 7.8c-2.8 4.3-4.7 8.3-4.4 8.9.4.7.2.8-.4.4-.6-.4-3.4 2.2-6.5 6.1-3 3.8-8.1 9.3-11.3 12.4-3.3 3-7.9 6.7-10.4 8.1-2.5 1.5-6.2 3.1-8.4 3.7-2.1.5-3.6.7-3.2.4.3-.4-.1-1.4-1-2.4s-2-3.5-2.5-5.6c-.4-2.1-1.1-7.4-1.5-11.8-.3-4.4-.1-12.5.6-18 .6-5.5 1.7-13.4 2.5-17.5s2.3-10.7 3.5-14.5c1.2-3.9 3.7-9.9 5.7-13.5 1.9-3.6 4.4-7.5 5.6-8.8 1.1-1.2 2.6-2.2 3.3-2.2.7 0 1.6.9 1.9 2.1.4 1.2.4 4.1 0 6.5-.3 2.5-1.3 6.1-2.1 8-.8 1.9-1.2 3.9-.9 4.4.4.6 1.2 1 1.9 1s2-.8 2.9-1.8c1-1 1.7-2.2 1.7-2.6 0-.4-.4-.4-1-.1-.5.3-1 .1-1-.5s.7-1 1.7-.8c1.2.2 2.1-1.1 3.4-4.7 1-2.8 1.8-6.4 1.9-8.1 0-1.7-.5-4.6-1.1-6.5-.7-1.9-2.5-4.8-4.1-6.5-1.6-1.7-4.6-3.6-6.7-4.3-2.1-.6-4.2-1.1-4.7-1.1zm2.6 3c.6 0 1 .4 1 1 0 .5-.4 1-1 1-.5 0-1-.5-1-1 0-.6.5-1 1-1zm4.5.6c.8.4 1.5.8 1.5 1 0 .2-.7.4-1.5.4s-1.5-.4-1.5-1c0-.5.7-.7 1.5-.4zM406 71c.6 0 1 .4 1 1 0 .5-.4 1-1 1-.5 0-1-.5-1-1 0-.6.5-1 1-1zm4 0c.6 0 1 .4 1 1 0 .5-.4 1-1 1-.5 0-1-.5-1-1 0-.6.5-1 1-1zm4 0c.6 0 1 .4 1 1 0 .5-.4 1-1 1-.5 0-1-.5-1-1 0-.6.5-1 1-1zm3.9 0c.6 0 1.3.4 1.6 1 .3.5-.1 1-.9 1-.9 0-1.6-.5-1.6-1 0-.6.4-1 .9-1zM406 75c.6 0 1 .4 1 1 0 .5-.4 1-1 1-.5 0-1-.5-1-1 0-.6.5-1 1-1zm4 0c.6 0 1 .4 1 1 0 .5-.4 1-1 1-.5 0-1-.5-1-1 0-.6.5-1 1-1zm4 0c.6 0 1 .4 1 1 0 .5-.4 1-1 1-.5 0-1-.5-1-1 0-.6.5-1 1-1zm4 0c.6 0 1 .4 1 1 0 .5-.4 1-1 1-.5 0-1-.5-1-1 0-.6.5-1 1-1zm-12.1 4c.5 0 1.2.7 1.5 1.6.5 1.4.4 1.5-.9.4-.8-.7-1.5-1.4-1.5-1.6 0-.2.4-.4.9-.4zm12.1 0c.6 0 1 .4 1 1 0 .5-.4 1-1 1-.5 0-1-.5-1-1 0-.6.5-1 1-1zm39 0c.6 0 1 .4 1 1 0 .5-.4 1-1 1-.5 0-1-.5-1-1 0-.6.5-1 1-1zm3.4 0c.3 0 .8.4 1.1 1 .3.5.1 1-.4 1-.6 0-1.1-.5-1.1-1 0-.6.2-1 .4-1zm23.1 3c2 0 3.9.8 5.2 2.2 1.1 1.3 2.6 3.3 3.2 4.6.7 1.3 1.9 4.4 2.7 7 .8 3 1.4 9.2 1.4 16.9 0 8.6-.6 14.7-1.9 20.5-1.1 4.6-3.1 11.3-4.5 14.9-1.3 3.6-3.8 9.2-5.5 12.5-1.7 3.2-4.1 7.1-5.4 8.5-1.2 1.5-3.4 3.4-4.9 4.3-2.6 1.7-2.7 1.7-4-.6-1-1.8-1.3-10.6-1.3-39.8 0-33.6.2-37.8 1.7-40.6 1-1.8 3.6-4.8 6-6.8 2.9-2.5 5.1-3.6 7.3-3.6zM418 83c.6 0 1 .4 1 1 0 .5-.4 1-1 1-.5 0-1-.5-1-1 0-.6.5-1 1-1zm35 0c.6 0 1 .4 1 1 0 .5-.4 1-1 1-.5 0-1-.5-1-1 0-.6.5-1 1-1zm4 0c.6 0 1 .4 1 1 0 .5-.4 1-1 1-.5 0-1-.5-1-1 0-.6.5-1 1-1zm4 0c.6 0 1 .4 1 1 0 .5-.4 1-1 1-.5 0-1-.5-1-1 0-.6.5-1 1-1zm31.6 1.2c1 1 1.6 2 1.3 2.2-.3.3-1.1-.5-1.8-1.7-1.3-2.1-1.2-2.1.5-.5zM457 87c.6 0 1 .4 1 1 0 .5-.4 1-1 1-.5 0-1-.5-1-1 0-.6.5-1 1-1zm0 15c.6 0 1 .4 1 1 0 .5-.4 1-1 1-.5 0-1-.5-1-1 0-.6.5-1 1-1zm42.4 0c.3 0 .8.4 1.1 1 .3.5.1 1-.4 1-.6 0-1.1-.5-1.1-1 0-.6.2-1 .4-1zm-117 4c.3 0 .8.4 1.1 1 .3.5.1 1-.4 1-.6 0-1.1-.5-1.1-1 0-.6.2-1 .4-1zm67.2 0c.2 0 .4.4.4 1 0 .5-.5 1-1.1 1-.5 0-.7-.5-.4-1 .3-.6.8-1 1.1-1zm4 0c.2 0 .4.4.4 1 0 .5-.5 1-1.1 1-.5 0-.7-.5-.4-1 .3-.6.8-1 1.1-1zm3.4 0c.6 0 1 .4 1 1 0 .5-.4 1-1 1-.5 0-1-.5-1-1 0-.6.5-1 1-1zm4 0c.6 0 1 .4 1 1 0 .5-.4 1-1 1-.5 0-1-.5-1-1 0-.6.5-1 1-1zm39 0c.6 0 1 .4 1 1 0 .5-.4 1-1 1-.5 0-1-.5-1-1 0-.6.5-1 1-1zm-117 4c.6 0 1 .4 1 1 0 .5-.4 1-1 1-.5 0-1-.5-1-1 0-.6.5-1 1-1zm66 0c.6 0 1 .4 1 1 0 .5-.4 1-1 1-.5 0-1-.5-1-1 0-.6.5-1 1-1zm4 0c.6 0 1 .4 1 1 0 .5-.4 1-1 1-.5 0-1-.5-1-1 0-.6.5-1 1-1zm4 0c.6 0 1 .4 1 1 0 .5-.4 1-1 1-.5 0-1-.5-1-1 0-.6.5-1 1-1zm4 0c.6 0 1 .4 1 1 0 .5-.4 1-1 1-.5 0-1-.5-1-1 0-.6.5-1 1-1zm4 0c.6 0 1 .4 1 1 0 .5-.4 1-1 1-.5 0-1-.5-1-1 0-.6.5-1 1-1zm35 0c.6 0 1 .4 1 1 0 .5-.4 1-1 1-.5 0-1-.5-1-1 0-.6.5-1 1-1zm-121 4c.6 0 1 .4 1 1 0 .5-.4 1-1 1-.5 0-1-.5-1-1 0-.6.5-1 1-1zm4 0c.6 0 1 .4 1 1 0 .5-.4 1-1 1-.5 0-1-.5-1-1 0-.6.5-1 1-1zm66 0c.6 0 1 .4 1 1 0 .5-.4 1-1 1-.5 0-1-.5-1-1 0-.6.5-1 1-1zm4 0c.6 0 1 .4 1 1 0 .5-.4 1-1 1-.5 0-1-.5-1-1 0-.6.5-1 1-1zm4 0c.6 0 1 .4 1 1 0 .5-.4 1-1 1-.5 0-1-.5-1-1 0-.6.5-1 1-1zm4 0c.6 0 1 .4 1 1 0 .5-.4 1-1 1-.5 0-1-.5-1-1 0-.6.5-1 1-1zm4 0c.6 0 1 .4 1 1 0 .5-.4 1-1 1-.5 0-1-.5-1-1 0-.6.5-1 1-1zm35 0c.6 0 1 .4 1 1 0 .5-.4 1-1 1-.5 0-1-.5-1-1 0-.6.5-1 1-1zm-121 4c.6 0 1 .4 1 1 0 .5-.4 1-1 1-.5 0-1-.5-1-1 0-.6.5-1 1-1zm4 0c.6 0 1 .4 1 1 0 .5-.4 1-1 1-.5 0-1-.5-1-1 0-.6.5-1 1-1zm66 0c.6 0 1 .4 1 1 0 .5-.4 1-1 1-.5 0-1-.5-1-1 0-.6.5-1 1-1zm4 0c.6 0 1 .4 1 1 0 .5-.4 1-1 1-.5 0-1-.5-1-1 0-.6.5-1 1-1zm4 0c.6 0 1 .4 1 1 0 .5-.4 1-1 1-.5 0-1-.5-1-1 0-.6.5-1 1-1zm4 0c.6 0 1 .4 1 1 0 .5-.4 1-1 1-.5 0-1-.5-1-1 0-.6.5-1 1-1zm4 0c.6 0 1 .4 1 1 0 .5-.4 1-1 1-.5 0-1-.5-1-1 0-.6.5-1 1-1zm35 0c.6 0 1 .4 1 1 0 .5-.4 1-1 1-.5 0-1-.5-1-1 0-.6.5-1 1-1zm-121 4c.6 0 1 .4 1 1 0 .5-.4 1-1 1-.5 0-1-.5-1-1 0-.6.5-1 1-1zm4 0c.6 0 1 .4 1 1 0 .5-.4 1-1 1-.5 0-1-.5-1-1 0-.6.5-1 1-1zm66 0c.6 0 1 .4 1 1 0 .5-.4 1-1 1-.5 0-1-.5-1-1 0-.6.5-1 1-1zm4 0c.6 0 1 .4 1 1 0 .5-.4 1-1 1-.5 0-1-.5-1-1 0-.6.5-1 1-1zm4 0c.6 0 1 .4 1 1 0 .5-.4 1-1 1-.5 0-1-.5-1-1 0-.6.5-1 1-1zm4 0c.6 0 1 .4 1 1 0 .5-.4 1-1 1-.5 0-1-.5-1-1 0-.6.5-1 1-1zm4 0c.6 0 1 .4 1 1 0 .5-.4 1-1 1-.5 0-1-.5-1-1 0-.6.5-1 1-1zm35 0c.6 0 1 .4 1 1 0 .5-.4 1-1 1-.5 0-1-.5-1-1 0-.6.5-1 1-1zm-117 4c.6 0 1 .2 1 .4 0 .3-.4.8-1 1.1-.5.3-1 .1-1-.4 0-.6.5-1.1 1-1.1zm66 0c.6 0 1 .4 1 1 0 .5-.4 1-1 1-.5 0-1-.5-1-1 0-.6.5-1 1-1zm3.9 0c.6 0 1.1.4 1.1 1 0 .5-.2 1-.4 1-.3 0-.8-.5-1.1-1-.3-.6-.1-1 .4-1zm4.1 0c.6 0 1 .4 1 1 0 .5-.4 1-1 1-.5 0-1-.5-1-1 0-.6.5-1 1-1zm4 0c.6 0 1 .4 1 1 0 .5-.4 1-1 1-.5 0-1-.5-1-1 0-.6.5-1 1-1zm39 0c.6 0 1 .4 1 1 0 .5-.4 1-1 1-.5 0-1-.5-1-1 0-.6.5-1 1-1zm-43 19c.6 0 1 .4 1 1 0 .5-.4 1-1 1-.5 0-1-.5-1-1 0-.6.5-1 1-1zm-78 4c.6 0 1 .4 1 1 0 .5-.4 1-1 1-.5 0-1-.5-1-1 0-.6.5-1 1-1zm3.4 0c.3 0 .8.4 1.1 1 .3.5.1 1-.4 1-.6 0-1.1-.5-1.1-1 0-.6.2-1 .4-1zm55.6 0c.6 0 1 .2 1 .4 0 .3-.4.8-1 1.1-.5.3-1 .1-1-.4 0-.6.5-1.1 1-1.1zm15 0c.6 0 1 .4 1 1 0 .5-.4 1-1 1-.5 0-1-.5-1-1 0-.6.5-1 1-1zm4 0c.6 0 1 .4 1 1 0 .5-.4 1-1 1-.5 0-1-.5-1-1 0-.6.5-1 1-1zm4 0c.6 0 1 .4 1 1 0 .5-.4 1-1 1-.5 0-1-.5-1-1 0-.6.5-1 1-1zm3.4 0c.3 0 .8.4 1.1 1 .3.5.1 1-.4 1-.6 0-1.1-.5-1.1-1 0-.6.2-1 .4-1zm28.2 0c.2 0 .4.4.4 1 0 .5-.5 1-1.1 1-.5 0-.7-.5-.4-1 .3-.6.8-1 1.1-1zm3.4 0c.6 0 1 .4 1 1 0 .5-.4 1-1 1-.5 0-1-.5-1-1 0-.6.5-1 1-1zm-113 4c.6 0 1 .4 1 1 0 .5-.4 1-1 1-.5 0-1-.5-1-1 0-.6.5-1 1-1zm46.6 0c.2 0 .4.4.4 1 0 .5-.5 1-1.1 1-.5 0-.7-.5-.4-1 .3-.6.8-1 1.1-1zm23.4 0c.6 0 1 .4 1 1 0 .5-.4 1-1 1-.5 0-1-.5-1-1 0-.6.5-1 1-1zm4 0c.6 0 1 .4 1 1 0 .5-.4 1-1 1-.5 0-1-.5-1-1 0-.6.5-1 1-1zm4 0c.6 0 1 .4 1 1 0 .5-.4 1-1 1-.5 0-1-.5-1-1 0-.6.5-1 1-1zm4 0c.6 0 1 .4 1 1 0 .5-.4 1-1 1-.5 0-1-.5-1-1 0-.6.5-1 1-1zm27 0c.6 0 1 .4 1 1 0 .5-.4 1-1 1-.5 0-1-.5-1-1 0-.6.5-1 1-1zm4 0c.6 0 1 .4 1 1 0 .5-.4 1-1 1-.5 0-1-.5-1-1 0-.6.5-1 1-1zm-113 4c.6 0 1 .4 1 1 0 .5-.4 1-1 1-.5 0-1-.5-1-1 0-.6.5-1 1-1zm4 0c.6 0 1 .4 1 1 0 .5-.4 1-1 1-.5 0-1-.5-1-1 0-.6.5-1 1-1zm39 0c.6 0 1 .4 1 1 0 .5-.4 1-1 1-.5 0-1-.5-1-1 0-.6.5-1 1-1zm4 0c.6 0 1 .4 1 1 0 .5-.4 1-1 1-.5 0-1-.5-1-1 0-.6.5-1 1-1zm27 0c.6 0 1 .4 1 1 0 .5-.4 1-1 1-.5 0-1-.5-1-1 0-.6.5-1 1-1zm4 0c.6 0 1 .4 1 1 0 .5-.4 1-1 1-.5 0-1-.5-1-1 0-.6.5-1 1-1zm4 0c.6 0 1 .4 1 1 0 .5-.4 1-1 1-.5 0-1-.5-1-1 0-.6.5-1 1-1zm23 0c.6 0 1 .4 1 1 0 .5-.4 1-1 1-.5 0-1-.5-1-1 0-.6.5-1 1-1zm4 0c.6 0 1 .4 1 1 0 .5-.4 1-1 1-.5 0-1-.5-1-1 0-.6.5-1 1-1zm-109 4c.6 0 1 .4 1 1 0 .5-.4 1-1 1-.5 0-1-.5-1-1 0-.6.5-1 1-1zm39 0c.6 0 1 .4 1 1 0 .5-.4 1-1 1-.5 0-1-.5-1-1 0-.6.5-1 1-1zm4 0c.6 0 1 .4 1 1 0 .5-.4 1-1 1-.5 0-1-.5-1-1 0-.6.5-1 1-1zm31 0c.6 0 1 .4 1 1 0 .5-.4 1-1 1-.5 0-1-.5-1-1 0-.6.5-1 1-1zm4 0c.6 0 1 .4 1 1 0 .5-.4 1-1 1-.5 0-1-.5-1-1 0-.6.5-1 1-1zm4 0c.6 0 1 .4 1 1 0 .5-.4 1-1 1-.5 0-1-.5-1-1 0-.6.5-1 1-1zm23 0c.6 0 1 .4 1 1 0 .5-.4 1-1 1-.5 0-1-.5-1-1 0-.6.5-1 1-1zm4.5 0c.8 0 1.5.4 1.5 1 0 .5-.7 1-1.5 1s-1.5-.5-1.5-1c0-.6.7-1 1.5-1zm-74.4 4c.5 0 .9.4.9 1 0 .5-.7 1-1.6 1-.8 0-1.2-.5-.9-1 .3-.6 1-1 1.6-1zm3.9 0c.6 0 1 .4 1 1 0 .5-.4 1-1 1-.5 0-1-.5-1-1 0-.6.5-1 1-1zm4 0c.6 0 1 .4 1 1 0 .5-.4 1-1 1-.5 0-1-.5-1-1 0-.6.5-1 1-1zm31 0c.6 0 1 .4 1 1 0 .5-.4 1-1 1-.5 0-1-.5-1-1 0-.6.5-1 1-1zm4 0c.6 0 1 .4 1 1 0 .5-.4 1-1 1-.5 0-1-.5-1-1 0-.6.5-1 1-1zm4 0c.6 0 1 .2 1 .4 0 .3-.4.8-1 1.1-.5.3-1 .1-1-.4 0-.6.5-1.1 1-1.1zm19 0c.6 0 1 .4 1 1 0 .5-.4 1-1 1-.5 0-1-.5-1-1 0-.6.5-1 1-1zm3.9 0c.6 0 1.1.4 1.1 1 0 .5-.2 1-.4 1-.3 0-.8-.5-1.1-1-.3-.6-.1-1 .4-1zm-31 4c.6 0 1.1.4 1.1 1 0 .5-.2 1-.4 1-.3 0-.8-.5-1.1-1-.3-.6-.1-1 .4-1z"/><path d="M682.1 15.7c-1-.9-1.1-.8-.5.6.3 1 .9 1.5 1.2 1.2.3-.3 0-1.1-.7-1.8zm1.6 6.5c-.3-.9-.5-.1-.5 1.8 0 1.9.2 2.7.5 1.7.2-.9.2-2.5 0-3.5zm-8.3 1.8c-.2 0-.4.4-.4 1 0 .5.5 1 1.1 1 .5 0 .7-.5.4-1-.3-.6-.8-1-1.1-1zm-3.4 8c-.5 0-1 .4-1 1 0 .5.5 1 1 1 .6 0 1-.5 1-1 0-.6-.4-1-1-1zm4 0c-.5 0-1 .4-1 1 0 .5.5 1 1 1 .6 0 1-.5 1-1 0-.6-.4-1-1-1zm-6.4 2.3c-.3-.4-.6.2-.5 1.3 0 1.1.3 1.4.6.6.3-.7.2-1.6-.1-1.9zm13.1.4c-.3-.6-.5.1-.5 1.8 0 1.6.2 2.2.5 1.2.2-.9.2-2.3 0-3zM672 36c-.5 0-1 .4-1 1 0 .5.5 1 1 1 .6 0 1-.5 1-1 0-.6-.4-1-1-1zm4 0c-.5 0-1 .4-1 1 0 .5.5 1 1 1 .6 0 1-.5 1-1 0-.6-.4-1-1-1zm-4 4c-.5 0-1 .5-1 1.1 0 .5.5.7 1 .4.6-.3 1-.8 1-1.1 0-.2-.4-.4-1-.4zm4 0c-.5 0-1 .5-1 1.1 0 .5.5.7 1 .4.6-.3 1-.8 1-1.1 0-.2-.4-.4-1-.4zm0 4c-.5 0-1 .5-1 1.1 0 .5.5.7 1 .4.6-.3 1-.8 1-1.1 0-.2-.4-.4-1-.4zm5.7 1.2c-.3-.9-.5-.1-.5 1.8 0 1.9.2 2.7.5 1.7.2-.9.2-2.5 0-3.5zM666.8 56c-.2 0-.9.9-1.6 2-1 1.7-1 2.1.2 2.6.9.3 2.1.4 2.8.1.8-.3.6-.6-.5-.6-1.4-.1-1.7-.6-1.2-2.1.3-1.1.5-2 .3-2zm15.7 3c-.5 0-1.7.5-2.5 1s-1 1-.5 1c.6 0 1.7-.5 2.5-1s1.1-1 .5-1zm22.5.3c-3.6 0-5 .2-3.2.4 1.7.2 4.7.2 6.5 0 1.7-.2.3-.4-3.3-.4zm-54 .9c-1.9 0-2.7.2-1.7.5.9.2 2.5.2 3.5 0 .9-.3.1-.5-1.8-.5zm5.6 2.8c-.3 0-.8.4-1.1 1-.3.5-.1 1 .4 1 .6 0 1.1-.5 1.1-1 0-.6-.2-1-.4-1zm4 0c-.3 0-.8.4-1.1 1-.3.5-.1 1 .4 1 .6 0 1.1-.5 1.1-1 0-.6-.2-1-.4-1zm3.4 0c-.5 0-1 .4-1 1 0 .5.5 1 1 1 .6 0 1-.5 1-1 0-.6-.4-1-1-1zm4 0c-.5 0-1 .4-1 1 0 .5.5 1 1 1 .6 0 1-.5 1-1 0-.6-.4-1-1-1zm7.4 0c-.2 0-.4.4-.4 1 0 .5.5 1 1.1 1 .5 0 .7-.5.4-1-.3-.6-.8-1-1.1-1zm20.2 0c-.3 0-.8.4-1.1 1-.3.5-.1 1 .4 1 .6 0 1.1-.5 1.1-1 0-.6-.2-1-.4-1zm7.4 0c-.5 0-1 .4-1 1 0 .5.5 1 1 1 .6 0 1-.5 1-1 0-.6-.4-1-1-1zm4 0c-.5 0-1 .4-1 1 0 .5.5 1 1 1 .6 0 1-.5 1-1 0-.6-.4-1-1-1zm7.4 0c-.2 0-.4.4-.4.9s.7 1.2 1.6 1.5c1.4.5 1.5.4.4-.9-.7-.8-1.4-1.5-1.6-1.5zM410 67c-.5 0-1 .4-1 1 0 .5.5 1 1 1 .6 0 1-.5 1-1 0-.6-.4-1-1-1zm4.5.6c-.8-.3-1.5-.1-1.5.4 0 .6.7 1 1.5 1s1.5-.2 1.5-.4-.7-.6-1.5-1zm2.7-.6c-.3 0 .3.9 1.3 2s2 2 2.3 2c.3 0-.3-.9-1.3-2s-2-2-2.3-2zm239.4 0c-.3 0-.8.4-1.1 1-.3.5-.1 1 .4 1 .6 0 1.1-.5 1.1-1 0-.6-.2-1-.4-1zm3.4 0c-.5 0-1 .4-1 1 0 .5.5 1 1 1 .6 0 1-.5 1-1 0-.6-.4-1-1-1zm4 0c-.5 0-1 .4-1 1 0 .5.5 1 1 1 .6 0 1-.5 1-1 0-.6-.4-1-1-1zm4 0c-.5 0-1 .4-1 1 0 .5.5 1 1 1 .6 0 1-.5 1-1 0-.6-.4-1-1-1zm3.4 0c-.2 0-.4.4-.4 1 0 .5.5 1 1.1 1 .5 0 .7-.5.4-1-.3-.6-.8-1-1.1-1zm39 1.1c-1.1 0-1.4.3-.6.6.7.3 1.6.2 1.9-.1.4-.3-.2-.6-1.3-.5zM691 70.2c-1.4 0-1.9.2-1.2.5.6.2 1.8.2 2.5 0 .6-.3.1-.5-1.3-.5zM406 71c-.5 0-1 .4-1 1 0 .5.5 1 1 1 .6 0 1-.5 1-1 0-.6-.4-1-1-1zm4 0c-.5 0-1 .4-1 1 0 .5.5 1 1 1 .6 0 1-.5 1-1 0-.6-.4-1-1-1zm4 0c-.5 0-1 .4-1 1 0 .5.5 1 1 1 .6 0 1-.5 1-1 0-.6-.4-1-1-1zm3.9 0c-.5 0-.9.4-.9 1 0 .5.7 1 1.6 1 .8 0 1.2-.5.9-1-.3-.6-1-1-1.6-1zm238 0c-.5 0-.7.4-.4 1 .3.5.8 1 1.1 1 .2 0 .4-.5.4-1 0-.6-.5-1-1.1-1zm4.1 0c-.5 0-1 .4-1 1 0 .5.5 1 1 1 .6 0 1-.5 1-1 0-.6-.4-1-1-1zm3.9 0c-.6 0-.8.9-.4 2.1.5 1.6.4 1.9-.5 1.4s-1.1-.4-.6.4c.4.6 1.2.9 1.7.6.5-.4.9-1.5.9-2.6 0-1-.5-1.9-1.1-1.9zm4.1 0c-.5 0-1 .4-1 1 0 .5.5 1 1 1 .6 0 1-.5 1-1 0-.6-.4-1-1-1zm4 0c-.5 0-1 .4-1 1 0 .5.5 1 1 1 .6 0 1-.5 1-1 0-.6-.4-1-1-1zm4 0c-.5 0-1 .4-1 1 0 .5.5 1 1 1 .6 0 1-.5 1-1 0-.6-.4-1-1-1zm4.5 1c-.2 0-.7.5-1 1.1-.4.6-.5 1.2-.2 1.5.2.3.7-.2 1-1.1.4-.8.5-1.5.2-1.5zm-257.8 1.4c-.2-.3-.7.2-1.1 1.1-.3.9-.6 2-.6 2.3 0 .4.5-.1 1.1-1.1.6-1 .9-2.1.6-2.3zM406 75c-.5 0-1 .4-1 1 0 .5.5 1 1 1 .6 0 1-.5 1-1 0-.6-.4-1-1-1zm4 0c-.5 0-1 .4-1 1 0 .5.5 1 1 1 .6 0 1-.5 1-1 0-.6-.4-1-1-1zm4 0c-.5 0-1 .4-1 1 0 .5.5 1 1 1 .6 0 1-.5 1-1 0-.6-.4-1-1-1zm4 0c-.5 0-1 .4-1 1 0 .5.5 1 1 1 .6 0 1-.5 1-1 0-.6-.4-1-1-1zm250 0c-.5 0-1 .4-1 1 0 .5.5 1 1 1 .6 0 1-.5 1-1 0-.6-.4-1-1-1zm4 0c-.5 0-1 .4-1 1 0 .5.5 1 1 1 .6 0 1-.5 1-1 0-.6-.4-1-1-1zm4 0c-.5 0-1 .4-1 1 0 .5.5 1 1 1 .6 0 1-.5 1-1 0-.6-.4-1-1-1zm-147.5 3c-.2 0-.7.5-1 1.1-.4.6-.5 1.2-.2 1.5.2.3.7-.2 1-1.1.4-.8.5-1.5.2-1.5zm-122.6 1c-.5 0-.9.2-.9.4s.7.9 1.5 1.6c1.3 1.1 1.4 1 .9-.4-.3-.9-1-1.6-1.5-1.6zm12.1 0c-.5 0-1 .4-1 1 0 .5.5 1 1 1 .6 0 1-.5 1-1 0-.6-.4-1-1-1zm39 0c-.5 0-1 .4-1 1 0 .5.5 1 1 1 .6 0 1-.5 1-1 0-.6-.4-1-1-1zm3.4 0c-.2 0-.4.4-.4 1 0 .5.5 1 1.1 1 .5 0 .7-.5.4-1-.3-.6-.8-1-1.1-1zM605 79c-.5 0-1 .4-1 1 0 .5.5 1 1 1 .6 0 1-.5 1-1 0-.6-.4-1-1-1zm7.9 0c-.5 0-.7.4-.4 1 .3.5.8 1 1.1 1 .2 0 .4-.5.4-1 0-.6-.5-1-1.1-1zm20.1 0c-.5 0-1 .5-1 1.1 0 .5.5.7 1 .4.6-.3 1-.8 1-1.1 0-.2-.4-.4-1-.4zm35 0c-.5 0-1 .4-1 1 0 .5.5 1 1 1 .6 0 1-.5 1-1 0-.6-.4-1-1-1zm4 0c-.5 0-1 .4-1 1 0 .5.5 1 1 1 .6 0 1-.5 1-1 0-.6-.4-1-1-1zm4 0c-.5 0-1 .5-1 1.1 0 .5.5.7 1 .4.6-.3 1-.8 1-1.1 0-.2-.4-.4-1-.4zm2.7.7c-.3-.6-.5-.1-.5 1.3 0 1.4.2 1.9.5 1.2.2-.6.2-1.8 0-2.5zM486.2 82c-.3 0 .5 1.1 1.8 2.5s2.6 2.5 2.8 2.5c.3 0-.5-1.1-1.8-2.5s-2.6-2.5-2.8-2.5zM418 83c-.5 0-1 .4-1 1 0 .5.5 1 1 1 .6 0 1-.5 1-1 0-.6-.4-1-1-1zm35 0c-.5 0-1 .4-1 1 0 .5.5 1 1 1 .6 0 1-.5 1-1 0-.6-.4-1-1-1zm4 0c-.5 0-1 .4-1 1 0 .5.5 1 1 1 .6 0 1-.5 1-1 0-.6-.4-1-1-1zm4 0c-.5 0-1 .4-1 1 0 .5.5 1 1 1 .6 0 1-.5 1-1 0-.6-.4-1-1-1zm31.6 1.2c-1.7-1.6-1.8-1.6-.5.5.7 1.2 1.5 2 1.8 1.7.3-.2-.3-1.2-1.3-2.2zm38.3-1.2c-.5 0-.7.4-.4 1 .3.5.8 1 1.1 1 .2 0 .4-.5.4-1 0-.6-.5-1-1.1-1zm48.8.7c-.3-.6-.5.1-.5 1.8 0 1.6.2 2.2.5 1.2.2-.9.2-2.3 0-3zM633 83c-.5 0-1 .5-1 1.1 0 .5.5.7 1 .4.6-.3 1-.8 1-1.1 0-.2-.4-.4-1-.4zm35 0c-.5 0-1 .4-1 1 0 .5.5 1 1 1 .6 0 1-.5 1-1 0-.6-.4-1-1-1zm4 0c-.5 0-1 .5-1 1.1 0 .5.5.7 1 .4.6-.3 1-.8 1-1.1 0-.2-.4-.4-1-.4zm-256.4 2.3c-.3-.4-.6.2-.5 1.3 0 1.1.3 1.4.6.6.3-.7.2-1.6-.1-1.9zM457 87c-.5 0-1 .4-1 1 0 .5.5 1 1 1 .6 0 1-.5 1-1 0-.6-.4-1-1-1zm179.5 0c-.2 0-.5.7-.9 1.5-.3.9 0 1.5.9 1.5s1.2-.6.9-1.5c-.4-.8-.7-1.5-.9-1.5zm41.2 2.7c-.2-1.2-.4 0-.4 2.8 0 2.7.2 3.8.4 2.2.2-1.5.2-3.7 0-5zm-14 1.5c-.3-.9-.5.1-.4 2.3 0 2.2.2 3 .4 1.7.2-1.2.2-3 0-4zm-17.2-.2c-.1 0-.2.7-.2 1.5s.3 1.3.5 1c.3-.3 1.7.5 3.1 1.7 2.1 1.9 2 1.7-.3-1-1.7-1.7-3-3.2-3.1-3.2zm-67.9 3.3c-.3-.4-.6.2-.5 1.3 0 1.1.3 1.4.6.6.3-.7.2-1.6-.1-1.9zm-160.7.7c-.5 0-.9.4-.9.8 0 .5.7.9 1.5.9s1.2-.4.9-.9c-.3-.4-.9-.8-1.5-.8zm29.8.7c-.3-.6-.5-.1-.5 1.3 0 1.4.2 1.9.5 1.2.2-.6.2-1.8 0-2.5zm165 2.5c-.2-1.5-.4-.2-.4 2.8s.2 4.3.4 2.7c.2-1.5.2-3.9 0-5.5zm-46 .5c-.3-.6-.5-.1-.5 1.3 0 1.4.2 1.9.5 1.2.2-.6.2-1.8 0-2.5zm30.9-.4c-.3-.4-.6.2-.5 1.3 0 1.1.3 1.4.6.6.3-.7.2-1.6-.1-1.9zm57.2-.3c-.2 0-1 .5-1.8 1-.9.6-1 1-.3 1 .6 0 1.5-.5 1.8-1 .3-.6.5-1 .3-1zm-159.1 1.7c-.3-.6-.5-.1-.5 1.3 0 1.4.2 1.9.5 1.2.2-.6.2-1.8 0-2.5zm14.9-.4c-.3-.4-.6.2-.5 1.3 0 1.1.3 1.4.6.6.3-.7.2-1.6-.1-1.9zm122 0c-.3-.4-.6.2-.5 1.3 0 1.1.3 1.4.6.6.3-.7.2-1.6-.1-1.9zm-163.9 3.9c-.2-2-.4-.1-.4 4.3 0 4.4.2 6.1.4 3.7.2-2.3.2-5.9 0-8zm194.9-1.5c-1-.4-1.3-.1-.9.9.3.7.9 1.4 1.4 1.4.5 0 .9-.4.9-.9s-.7-1.1-1.4-1.4zM457 102c-.5 0-1 .4-1 1 0 .5.5 1 1 1 .6 0 1-.5 1-1 0-.6-.4-1-1-1zm42.4 0c-.2 0-.4.4-.4 1 0 .5.5 1 1.1 1 .5 0 .7-.5.4-1-.3-.6-.8-1-1.1-1zm177.4.8c-.3-.9-.6-.9-1.2 0-.4.7-.3 1.2.3 1.2.5 0 1.1 2.1 1.3 4.7l.3 4.8.5-5.2c.3-2.8.2-4.9-.2-4.7-.3.2-.8-.1-1-.8zm-230.1 6.9c-.2-2.9-.3-.3-.3 5.8 0 6 .1 8.4.3 5.2.2-3.2.2-8.1 0-11zm150-4c-.3-.6-.5.1-.5 1.8 0 1.6.2 2.2.5 1.2.2-.9.2-2.3 0-3zm-214.3.3c-.2 0-.4.4-.4 1 0 .5.5 1 1.1 1 .5 0 .7-.5.4-1-.3-.6-.8-1-1.1-1zm67.2 0c-.3 0-.8.4-1.1 1-.3.5-.1 1 .4 1 .6 0 1.1-.5 1.1-1 0-.6-.2-1-.4-1zm4 0c-.3 0-.8.4-1.1 1-.3.5-.1 1 .4 1 .6 0 1.1-.5 1.1-1 0-.6-.2-1-.4-1zm3.4 0c-.5 0-1 .4-1 1 0 .5.5 1 1 1 .6 0 1-.5 1-1 0-.6-.4-1-1-1zm4 0c-.5 0-1 .4-1 1 0 .5.5 1 1 1 .6 0 1-.5 1-1 0-.6-.4-1-1-1zm39 0c-.5 0-1 .4-1 1 0 .5.5 1 1 1 .6 0 1-.5 1-1 0-.6-.4-1-1-1zm9.6.3c-.3-.4-.6.2-.5 1.3 0 1.1.3 1.4.6.6.3-.7.2-1.6-.1-1.9zm56.1.9c-.3-.9-.5-.1-.5 1.8 0 1.9.2 2.7.5 1.7.2-.9.2-2.5 0-3.5zm8.9-1.2c-.3 0-.8.4-1.1 1-.3.5-.1 1 .4 1 .6 0 1.1-.5 1.1-1 0-.6-.2-1-.4-1zm3.1 1.2c-.3-.9-.5-.1-.5 1.8 0 1.9.2 2.7.5 1.7.2-.9.2-2.5 0-3.5zm47.9-1.2c-.3 0-.8.4-1.1 1-.3.5-.1 1 .4 1 .6 0 1.1-.5 1.1-1 0-.6-.2-1-.4-1zm36.3 0c-.5 0-.7.4-.4 1 .3.5.8 1 1.1 1 .2 0 .4-.5.4-1 0-.6-.5-1-1.1-1zm6.1 0c-.5 0-1 .4-1 1 0 .5.5 1 1 1 .6 0 1-.5 1-1 0-.6-.4-1-1-1zm-164.3 2.7c-.3-.6-.5.1-.5 1.8 0 1.6.2 2.2.5 1.2.2-.9.2-2.3 0-3zm126.9-.4c-.3-.4-.6.2-.5 1.3 0 1.1.3 1.4.6.6.3-.7.2-1.6-.1-1.9zm-253 1c-.3-.4-.6.2-.5 1.3 0 1.1.3 1.4.6.6.3-.7.2-1.6-.1-1.9zm5.4.7c-.5 0-1 .4-1 1 0 .5.5 1 1 1 .6 0 1-.5 1-1 0-.6-.4-1-1-1zm66 0c-.5 0-1 .4-1 1 0 .5.5 1 1 1 .6 0 1-.5 1-1 0-.6-.4-1-1-1zm4 0c-.5 0-1 .4-1 1 0 .5.5 1 1 1 .6 0 1-.5 1-1 0-.6-.4-1-1-1zm4 0c-.5 0-1 .4-1 1 0 .5.5 1 1 1 .6 0 1-.5 1-1 0-.6-.4-1-1-1zm4 0c-.5 0-1 .4-1 1 0 .5.5 1 1 1 .6 0 1-.5 1-1 0-.6-.4-1-1-1zm4 0c-.5 0-1 .4-1 1 0 .5.5 1 1 1 .6 0 1-.5 1-1 0-.6-.4-1-1-1zm35 0c-.5 0-1 .4-1 1 0 .5.5 1 1 1 .6 0 1-.5 1-1 0-.6-.4-1-1-1zm74 0c-.5 0-1 .4-1 1 0 .5.5 1 1 1 .6 0 1-.5 1-1 0-.6-.4-1-1-1zm51 0c-.5 0-1 .4-1 1 0 .5.5 1 1 1 .6 0 1-.5 1-1 0-.6-.4-1-1-1zm43 0c-.5 0-1 .4-1 1 0 .5.5 1 1 1 .6 0 1-.5 1-1 0-.6-.4-1-1-1zm4 0c-.5 0-1 .4-1 1 0 .5.5 1 1 1 .6 0 1-.5 1-1 0-.6-.4-1-1-1zm-144.4 1.3c-.3-.4-.6.2-.5 1.3 0 1.1.3 1.4.6.6.3-.7.2-1.6-.1-1.9zm-131 1c-.3-.4-.6.2-.5 1.3 0 1.1.3 1.4.6.6.3-.7.2-1.6-.1-1.9zm181.1 5c-.2-2.6-.3-.8-.3 4.2 0 4.9.1 7.1.3 4.8.2-2.3.2-6.4 0-9zM379 114c-.5 0-1 .4-1 1 0 .5.5 1 1 1 .6 0 1-.5 1-1 0-.6-.4-1-1-1zm4 0c-.5 0-1 .4-1 1 0 .5.5 1 1 1 .6 0 1-.5 1-1 0-.6-.4-1-1-1zm66 0c-.5 0-1 .4-1 1 0 .5.5 1 1 1 .6 0 1-.5 1-1 0-.6-.4-1-1-1zm4 0c-.5 0-1 .4-1 1 0 .5.5 1 1 1 .6 0 1-.5 1-1 0-.6-.4-1-1-1zm4 0c-.5 0-1 .4-1 1 0 .5.5 1 1 1 .6 0 1-.5 1-1 0-.6-.4-1-1-1zm4 0c-.5 0-1 .4-1 1 0 .5.5 1 1 1 .6 0 1-.5 1-1 0-.6-.4-1-1-1zm4 0c-.5 0-1 .4-1 1 0 .5.5 1 1 1 .6 0 1-.5 1-1 0-.6-.4-1-1-1zm35 0c-.5 0-1 .4-1 1 0 .5.5 1 1 1 .6 0 1-.5 1-1 0-.6-.4-1-1-1zm74 0c-.5 0-1 .4-1 1 0 .5.5 1 1 1 .6 0 1-.5 1-1 0-.6-.4-1-1-1zm51 0c-.5 0-1 .4-1 1 0 .5.5 1 1 1 .6 0 1-.5 1-1 0-.6-.4-1-1-1zm43 0c-.5 0-1 .4-1 1 0 .5.5 1 1 1 .6 0 1-.5 1-1 0-.6-.4-1-1-1zm4 0c-.5 0-1 .4-1 1 0 .5.5 1 1 1 .6 0 1-.5 1-1 0-.6-.4-1-1-1zm-295.4 2.3c-.3-.4-.6.2-.5 1.3 0 1.1.3 1.4.6.6.3-.7.2-1.6-.1-1.9zm2.4 1.7c-.5 0-1 .4-1 1 0 .5.5 1 1 1 .6 0 1-.5 1-1 0-.6-.4-1-1-1zm4 0c-.5 0-1 .4-1 1 0 .5.5 1 1 1 .6 0 1-.5 1-1 0-.6-.4-1-1-1zm66 0c-.5 0-1 .4-1 1 0 .5.5 1 1 1 .6 0 1-.5 1-1 0-.6-.4-1-1-1zm4 0c-.5 0-1 .4-1 1 0 .5.5 1 1 1 .6 0 1-.5 1-1 0-.6-.4-1-1-1zm4 0c-.5 0-1 .4-1 1 0 .5.5 1 1 1 .6 0 1-.5 1-1 0-.6-.4-1-1-1zm4 0c-.5 0-1 .4-1 1 0 .5.5 1 1 1 .6 0 1-.5 1-1 0-.6-.4-1-1-1zm4 0c-.5 0-1 .4-1 1 0 .5.5 1 1 1 .6 0 1-.5 1-1 0-.6-.4-1-1-1zm35 0c-.5 0-1 .4-1 1 0 .5.5 1 1 1 .6 0 1-.5 1-1 0-.6-.4-1-1-1zm74 0c-.5 0-1 .4-1 1 0 .5.5 1 1 1 .6 0 1-.5 1-1 0-.6-.4-1-1-1zm21.7 2.7c-.2-1.7-.4-.1-.4 3.8 0 3.8.2 5.3.4 3.2.2-2 .2-5.2 0-7zM625 118c-.5 0-1 .4-1 1 0 .5.5 1 1 1 .6 0 1-.5 1-1 0-.6-.4-1-1-1zm43 0c-.5 0-1 .4-1 1 0 .5.5 1 1 1 .6 0 1-.5 1-1 0-.6-.4-1-1-1zm4 0c-.5 0-1 .4-1 1 0 .5.5 1 1 1 .6 0 1-.5 1-1 0-.6-.4-1-1-1zm74 0c-.5 0-1 .4-1 1 0 .5.5 1 1 1 .6 0 1-.5 1-1 0-.6-.4-1-1-1zm-68.3 4.7c-.2-2.3-.4-.4-.4 4.3s.2 6.6.4 4.2c.2-2.3.2-6.1 0-8.5zm-57.1-1.2c-.9-.9-1.6-1.3-1.6-.8 0 .4.4 1.5 1 2.3.5.8 1.2 1.1 1.6.8.3-.4-.1-1.4-1-2.3zm125 .2c-1-.4-1.3-.1-.9.9.3.7.9 1.4 1.4 1.4.5 0 .9-.4.9-.9s-.7-1.1-1.4-1.4zM379 122c-.5 0-1 .4-1 1 0 .5.5 1 1 1 .6 0 1-.5 1-1 0-.6-.4-1-1-1zm4 0c-.5 0-1 .4-1 1 0 .5.5 1 1 1 .6 0 1-.5 1-1 0-.6-.4-1-1-1zm66 0c-.5 0-1 .4-1 1 0 .5.5 1 1 1 .6 0 1-.5 1-1 0-.6-.4-1-1-1zm4 0c-.5 0-1 .4-1 1 0 .5.5 1 1 1 .6 0 1-.5 1-1 0-.6-.4-1-1-1zm4 0c-.5 0-1 .4-1 1 0 .5.5 1 1 1 .6 0 1-.5 1-1 0-.6-.4-1-1-1zm4 0c-.5 0-1 .4-1 1 0 .5.5 1 1 1 .6 0 1-.5 1-1 0-.6-.4-1-1-1zm4 0c-.5 0-1 .4-1 1 0 .5.5 1 1 1 .6 0 1-.5 1-1 0-.6-.4-1-1-1zm35 0c-.5 0-1 .4-1 1 0 .5.5 1 1 1 .6 0 1-.5 1-1 0-.6-.4-1-1-1zm3.7 1.2c-.3-.9-.5-.1-.5 1.8 0 1.9.2 2.7.5 1.7.2-.9.2-2.5 0-3.5zM574 122c-.5 0-1 .4-1 1 0 .5.5 1 1 1 .6 0 1-.5 1-1 0-.6-.4-1-1-1zm51 0c-.5 0-1 .4-1 1 0 .5.5 1 1 1 .6 0 1-.5 1-1 0-.6-.4-1-1-1zm43 0c-.5 0-1 .4-1 1 0 .5.5 1 1 1 .6 0 1-.5 1-1 0-.6-.4-1-1-1zm4 0c-.5 0-1 .4-1 1 0 .5.5 1 1 1 .6 0 1-.5 1-1 0-.6-.4-1-1-1zm-277.4 1.3c-.3-.4-.6.2-.5 1.3 0 1.1.3 1.4.6.6.3-.7.2-1.6-.1-1.9zm269.1.4c-.3-.6-.5-.1-.5 1.3 0 1.4.2 1.9.5 1.2.2-.6.2-1.8 0-2.5zm-168.1.6c-.3-.4-.6.2-.5 1.3 0 1.1.3 1.4.6.6.3-.7.2-1.6-.1-1.9zM383 126c-.5 0-1 .5-1 1.1 0 .5.5.7 1 .4.6-.3 1-.8 1-1.1 0-.2-.4-.4-1-.4zm66 0c-.5 0-1 .4-1 1 0 .5.5 1 1 1 .6 0 1-.5 1-1 0-.6-.4-1-1-1zm3.9 0c-.5 0-.7.4-.4 1 .3.5.8 1 1.1 1 .2 0 .4-.5.4-1 0-.6-.5-1-1.1-1zm4.1 0c-.5 0-1 .4-1 1 0 .5.5 1 1 1 .6 0 1-.5 1-1 0-.6-.4-1-1-1zm4 0c-.5 0-1 .4-1 1 0 .5.5 1 1 1 .6 0 1-.5 1-1 0-.6-.4-1-1-1zm39 0c-.5 0-1 .4-1 1 0 .5.5 1 1 1 .6 0 1-.5 1-1 0-.6-.4-1-1-1zm73.9 0c-.5 0-.7.4-.4 1 .3.5.8 1 1.1 1 .2 0 .4-.5.4-1 0-.6-.5-1-1.1-1zm37.8 3.2c-.2-2-.4-.3-.4 3.8s.2 5.8.4 3.7c.2-2 .2-5.4 0-7.5zm9.3-3.2c-.5 0-1 .4-1 1 0 .5.5 1 1 1 .6 0 1-.5 1-1 0-.6-.4-1-1-1zm3.9 0c-.5 0-.4.6.3 1.4.7.8 1.5 1.2 1.7 1.1.1-.2 0-.8-.4-1.4-.3-.6-1.1-1.1-1.6-1.1zm43.1 0c-.5 0-1 .4-1 1 0 .5.5 1 1 1 .6 0 1-.5 1-1 0-.6-.4-1-1-1zm-292.3 4.2c-.3-.9-.5-.1-.5 1.8 0 1.9.2 2.7.5 1.7.2-.9.2-2.5 0-3.5zm18 1.5c-.3-.6-.5.1-.5 1.8 0 1.6.2 2.2.5 1.2.2-.9.2-2.3 0-3zm169 .4c-1 0-2 .6-2.4 1.4-.3.9-.3 1.9.1 2.2.3.4.6-.1.6-1 0-.8.8-1.8 1.8-2 1.6-.4 1.6-.5-.1-.6zm1.9 2.2c-.3-.4-.6.2-.5 1.3 0 1.1.3 1.4.6.6.3-.7.2-1.6-.1-1.9zm100.1.4c-.3-.6-.5-.1-.5 1.3 0 1.4.2 1.9.5 1.2.2-.6.2-1.8 0-2.5zM500 138.3c-1-.3-1.1-.2-.4.4.6.4 1.4 1.5 1.7 2.3.5 1.1.6.9.4-.4-.1-1.1-.9-2.1-1.7-2.3zm-107.3 4.9c-.2-2-.4-.3-.4 3.8s.2 5.8.4 3.7c.2-2 .2-5.4 0-7.5zm43.9-2.2c-.2 0-1 .8-1.7 1.7-1.2 1.6-1.2 1.7.2.6.9-.7 2-.9 2.4-.5.5.4.5.1.1-.6-.4-.6-.9-1.2-1-1.2zm9.8 0c-.8 0-1.4.2-1.4.4s.9.6 2 .9c1.1.3 1.8.1 1.4-.4-.3-.5-1.2-.9-2-.9zm149.3 1.2c-.3-.9-.5-.1-.5 1.8 0 1.9.2 2.7.5 1.7.2-.9.2-2.5 0-3.5zm83 .5c-.3-.6-.5.1-.5 1.8 0 1.6.2 2.2.5 1.2.2-.9.2-2.3 0-3zm-66.2 1.6c-.8 0-1.5.4-1.5.9 0 .4.7.8 1.5.8s1.5-.4 1.5-.8c0-.5-.7-.9-1.5-.9zm-163.8 1.4c-.3-.6-.5-.1-.5 1.3 0 1.4.2 1.9.5 1.2.2-.6.2-1.8 0-2.5zm8.3-.7c-.5 0-1 .4-1 1 0 .5.5 1 1 1 .6 0 1-.5 1-1 0-.6-.4-1-1-1zm-80.4 1.3c-.3-.4-.6.2-.5 1.3 0 1.1.3 1.4.6.6.3-.7.2-1.6-.1-1.9zm149.1 2.4c-.3-.6-.5-.1-.5 1.3 0 1.4.2 1.9.5 1.2.2-.6.2-1.8 0-2.5zM379 149c-.5 0-1 .4-1 1 0 .5.5 1 1 1 .6 0 1-.5 1-1 0-.6-.4-1-1-1zm3.4 0c-.2 0-.4.4-.4 1 0 .5.5 1 1.1 1 .5 0 .7-.5.4-1-.3-.6-.8-1-1.1-1zm55.6 0c-.5 0-1 .5-1 1.1 0 .5.5.7 1 .4.6-.3 1-.8 1-1.1 0-.2-.4-.4-1-.4zm15 0c-.5 0-1 .4-1 1 0 .5.5 1 1 1 .6 0 1-.5 1-1 0-.6-.4-1-1-1zm4 0c-.5 0-1 .4-1 1 0 .5.5 1 1 1 .6 0 1-.5 1-1 0-.6-.4-1-1-1zm4 0c-.5 0-1 .4-1 1 0 .5.5 1 1 1 .6 0 1-.5 1-1 0-.6-.4-1-1-1zm3.4 0c-.2 0-.4.4-.4 1 0 .5.5 1 1.1 1 .5 0 .7-.5.4-1-.3-.6-.8-1-1.1-1zm28.2 0c-.3 0-.8.4-1.1 1-.3.5-.1 1 .4 1 .6 0 1.1-.5 1.1-1 0-.6-.2-1-.4-1zm3.4 0c-.5 0-1 .4-1 1 0 .5.5 1 1 1 .6 0 1-.5 1-1 0-.6-.4-1-1-1zm78.6 0c-.3 0-.8.4-1.1 1-.3.5-.1 1 .4 1 .6 0 1.1-.5 1.1-1 0-.6-.2-1-.4-1zm3.3 0c-.5 0-.9.4-.9 1 0 .5.7 1 1.6 1 .8 0 1.2-.5.9-1-.3-.6-1-1-1.6-1zm35.7 0c-.3 0-.8.4-1.1 1-.3.5-.1 1 .4 1 .6 0 1.1-.5 1.1-1 0-.6-.2-1-.4-1zm4 0c-.3 0-.8.4-1.1 1-.3.5-.1 1 .4 1 .6 0 1.1-.5 1.1-1 0-.6-.2-1-.4-1zm53.8 0c-.2 0-.4.4-.4 1 0 .5.5 1 1.1 1 .5 0 .7-.5.4-1-.3-.6-.8-1-1.1-1zm4 0c-.2 0-.4.4-.4 1 0 .5.5 1 1.1 1 .5 0 .7-.5.4-1-.3-.6-.8-1-1.1-1zm59.4.5c-.3-.3-.9.2-1.2 1.2-.6 1.4-.5 1.5.5.6.7-.7 1-1.5.7-1.8zM428.7 151c-.2 0-1.2 1-2.3 2.2l-1.9 2.3 2.3-1.9c1.2-1.1 2.2-2.1 2.2-2.3 0-.1-.2-.3-.3-.3zm250.9.3c-.3-.4-.6.2-.5 1.3 0 1.1.3 1.4.6.6.3-.7.2-1.6-.1-1.9zM383 153c-.5 0-1 .4-1 1 0 .5.5 1 1 1 .6 0 1-.5 1-1 0-.6-.4-1-1-1zm46.6 0c-.3 0-.8.4-1.1 1-.3.5-.1 1 .4 1 .6 0 1.1-.5 1.1-1 0-.6-.2-1-.4-1zm23.4 0c-.5 0-1 .4-1 1 0 .5.5 1 1 1 .6 0 1-.5 1-1 0-.6-.4-1-1-1zm4 0c-.5 0-1 .4-1 1 0 .5.5 1 1 1 .6 0 1-.5 1-1 0-.6-.4-1-1-1zm4 0c-.5 0-1 .4-1 1 0 .5.5 1 1 1 .6 0 1-.5 1-1 0-.6-.4-1-1-1zm4 0c-.5 0-1 .4-1 1 0 .5.5 1 1 1 .6 0 1-.5 1-1 0-.6-.4-1-1-1zm27 0c-.5 0-1 .4-1 1 0 .5.5 1 1 1 .6 0 1-.5 1-1 0-.6-.4-1-1-1zm3.9 0c-.5 0-.9.4-.9.9s.7 1.1 1.4 1.4c1 .4 1.3.1.9-.9-.3-.7-.9-1.4-1.4-1.4zm78.1 0c-.5 0-1 .4-1 1 0 .5.5 1 1 1 .6 0 1-.5 1-1 0-.6-.4-1-1-1zm4 0c-.5 0-1 .4-1 1 0 .5.5 1 1 1 .6 0 1-.5 1-1 0-.6-.4-1-1-1zm13.9.3c-1.1.1-2.2.4-2.4.7-.2.3.7.7 2.1.8 1.3.1 2.4-.2 2.4-.7 0-.6-.9-.9-2.1-.8zm25.1-.3c-.5 0-1 .4-1 1 0 .5.5 1 1 1 .6 0 1-.5 1-1 0-.6-.4-1-1-1zm55 0c-.5 0-1 .4-1 1 0 .5.5 1 1 1 .6 0 1-.5 1-1 0-.6-.4-1-1-1zm54 0c-.5 0-1 .4-1 1 0 .5.5 1 1 1 .6 0 1-.5 1-1 0-.6-.4-1-1-1zm-257.3 2.7c-.2-1.2-.4 0-.4 2.8 0 2.7.2 3.8.4 2.2.2-1.5.2-3.7 0-5zm252.9-.7c-.2 0-1 .8-1.7 1.7-1.3 1.6-1.2 1.7.4.4.9-.7 1.7-1.5 1.7-1.7 0-.2-.2-.4-.4-.4zm-195 1.3c-.3-.4-.6.2-.5 1.3 0 1.1.3 1.4.6.6.3-.7.2-1.6-.1-1.9zM383 157c-.5 0-1 .4-1 1 0 .5.5 1 1 1 .6 0 1-.5 1-1 0-.6-.4-1-1-1zm4 0c-.5 0-1 .4-1 1 0 .5.5 1 1 1 .6 0 1-.5 1-1 0-.6-.4-1-1-1zm39 0c-.5 0-1 .4-1 1 0 .5.5 1 1 1 .6 0 1-.5 1-1 0-.6-.4-1-1-1zm4 0c-.5 0-1 .4-1 1 0 .5.5 1 1 1 .6 0 1-.5 1-1 0-.6-.4-1-1-1zm27 0c-.5 0-1 .4-1 1 0 .5.5 1 1 1 .6 0 1-.5 1-1 0-.6-.4-1-1-1zm4 0c-.5 0-1 .4-1 1 0 .5.5 1 1 1 .6 0 1-.5 1-1 0-.6-.4-1-1-1zm4 0c-.5 0-1 .4-1 1 0 .5.5 1 1 1 .6 0 1-.5 1-1 0-.6-.4-1-1-1zm23 0c-.5 0-1 .4-1 1 0 .5.5 1 1 1 .6 0 1-.5 1-1 0-.6-.4-1-1-1zm4 0c-.5 0-1 .4-1 1 0 .5.5 1 1 1 .6 0 1-.5 1-1 0-.6-.4-1-1-1zm86 0c-.5 0-1 .4-1 1 0 .5.5 1 1 1 .6 0 1-.5 1-1 0-.6-.4-1-1-1zm4 0c-.5 0-1 .4-1 1 0 .5.5 1 1 1 .6 0 1-.5 1-1 0-.6-.4-1-1-1zm8 0c-.5 0-1 .4-1 1 0 .5.5 1 1 1 .6 0 1-.5 1-1 0-.6-.4-1-1-1zm4 0c-.5 0-1 .4-1 1 0 .5.5 1 1 1 .6 0 1-.5 1-1 0-.6-.4-1-1-1zm19 0c-.5 0-1 .4-1 1 0 .5.5 1 1 1 .6 0 1-.5 1-1 0-.6-.4-1-1-1zm4 0c-.5 0-1 .4-1 1 0 .5.5 1 1 1 .6 0 1-.5 1-1 0-.6-.4-1-1-1zm55 0c-.5 0-1 .4-1 1 0 .5.5 1 1 1 .6 0 1-.5 1-1 0-.6-.4-1-1-1zm4 0c-.5 0-1 .4-1 1 0 .5.5 1 1 1 .6 0 1-.5 1-1 0-.6-.4-1-1-1zm46.6 0c-.3 0-.8.4-1.1 1-.3.5-.1 1 .4 1 .6 0 1.1-.5 1.1-1 0-.6-.2-1-.4-1zm-174.9 2.4c-.2-.3-.7.3-1.1 1.2-.4.9-.4 1.9-.1 2.2.2.3.7-.3 1.1-1.2.4-.9.4-1.9.1-2.2zm-154.1.9c-.3-.4-.6.2-.5 1.3 0 1.1.3 1.4.6.6.3-.7.2-1.6-.1-1.9zm-10.6.7c-.5 0-1 .4-1 1 0 .5.5 1 1 1 .6 0 1-.5 1-1 0-.6-.4-1-1-1zm39 0c-.5 0-1 .4-1 1 0 .5.5 1 1 1 .6 0 1-.5 1-1 0-.6-.4-1-1-1zm4 0c-.5 0-1 .4-1 1 0 .5.5 1 1 1 .6 0 1-.5 1-1 0-.6-.4-1-1-1zm31 0c-.5 0-1 .4-1 1 0 .5.5 1 1 1 .6 0 1-.5 1-1 0-.6-.4-1-1-1zm4 0c-.5 0-1 .4-1 1 0 .5.5 1 1 1 .6 0 1-.5 1-1 0-.6-.4-1-1-1zm4 0c-.5 0-1 .4-1 1 0 .5.5 1 1 1 .6 0 1-.5 1-1 0-.6-.4-1-1-1zm23 0c-.5 0-1 .4-1 1 0 .5.5 1 1 1 .6 0 1-.5 1-1 0-.6-.4-1-1-1zm4.4 0c-.8 0-1.4.4-1.4.9s.9 1.1 1.9 1.4c1.4.3 1.8.1 1.4-.9-.3-.8-1.1-1.4-1.9-1.4zm26.5 0c-.5 0-.7.4-.4 1 .3.5.8 1 1.1 1 .2 0 .4-.5.4-1 0-.6-.5-1-1.1-1zm8.7.3c-.3-.4-.6.2-.5 1.3 0 1.1.3 1.4.6.6.3-.7.2-1.6-.1-1.9zm54.4-.3c-.5 0-1 .4-1 .9 0 .6.5 1.3 1 1.6.6.3 1-.1 1-.9 0-.9-.4-1.6-1-1.6zm4 0c-.5 0-1 .4-1 1 0 .5.5 1 1 1 .6 0 1-.5 1-1 0-.6-.4-1-1-1zm4 0c-.5 0-1 .4-1 1 0 .5.5 1 1 1 .6 0 1-.5 1-1 0-.6-.4-1-1-1zm23 0c-.5 0-1 .4-1 1 0 .5.5 1 1 1 .6 0 1-.5 1-1 0-.6-.4-1-1-1zm4 0c-.5 0-1 .4-1 1 0 .5.5 1 1 1 .6 0 1-.5 1-1 0-.6-.4-1-1-1zm59 0c-.5 0-1 .4-1 1 0 .5.5 1 1 1 .6 0 1-.5 1-1 0-.6-.4-1-1-1zm51 0c-.5 0-1 .5-1 1.1 0 .5.5.7 1 .4.6-.3 1-.8 1-1.1 0-.2-.4-.4-1-.4zm2.6 1c-.2 0-1 .8-1.7 1.7-1.3 1.6-1.2 1.7.4.4.9-.7 1.7-1.5 1.7-1.7 0-.2-.2-.4-.4-.4zm-299 2c-.2 0-1 .8-1.7 1.7-1.3 1.6-1.2 1.7.4.4.9-.7 1.7-1.5 1.7-1.7 0-.2-.2-.4-.4-.4zm87.3.4c-.6-.3-.3.5.6 2 1 1.4 1.9 2.6 2.2 2.6.2 0-.1-.9-.7-1.9-.5-1.1-1.5-2.3-2.1-2.7zm-99.8.6c-.6 0-1.3.4-1.6 1-.3.5.1 1 .9 1 .9 0 1.6-.5 1.6-1 0-.6-.4-1-.9-1zm3.9 0c-.5 0-1 .4-1 1 0 .5.5 1 1 1 .6 0 1-.5 1-1 0-.6-.4-1-1-1zm4 0c-.5 0-1 .4-1 1 0 .5.5 1 1 1 .6 0 1-.5 1-1 0-.6-.4-1-1-1zm31 0c-.5 0-1 .4-1 1 0 .5.5 1 1 1 .6 0 1-.5 1-1 0-.6-.4-1-1-1zm4 0c-.5 0-1 .4-1 1 0 .5.5 1 1 1 .6 0 1-.5 1-1 0-.6-.4-1-1-1zm4 0c-.5 0-1 .5-1 1.1 0 .5.5.7 1 .4.6-.3 1-.8 1-1.1 0-.2-.4-.4-1-.4zm19 0c-.5 0-1 .4-1 1 0 .5.5 1 1 1 .6 0 1-.5 1-1 0-.6-.4-1-1-1zm3.9 0c-.5 0-.7.4-.4 1 .3.5.8 1 1.1 1 .2 0 .4-.5.4-1 0-.6-.5-1-1.1-1zm55.1 0c-.5 0-1 .4-1 1 0 .5.5 1 1 1 .6 0 1-.5 1-1 0-.6-.4-1-1-1zm69.9 0c-.5 0-.7.4-.4 1 .3.5.8 1 1.1 1 .2 0 .4-.5.4-1 0-.6-.5-1-1.1-1zm102.1 0c-.5 0-1 .5-1 1.1 0 .5.5.7 1 .4.6-.3 1-.8 1-1.1 0-.2-.4-.4-1-.4zm-118.5 1c-.8 0-1.5.2-1.5.4s.7.6 1.5 1c.8.3 1.5.1 1.5-.4 0-.6-.7-1-1.5-1zM470 170.2c-.7-2.2-.8-2.3-.9-.6-.1 1.1.6 2.9 1.5 4 .8 1 1.2 1.3.9.6-.4-.8-1.1-2.6-1.5-4zm66.8-2.2c-.4 0-.9.4-1.2.8-.2.4.7.9 2.2 1 2.1.1 2.4 0 1.2-.8-.8-.5-1.8-1-2.2-1zm-79.9 1c-.5 0-.7.4-.4 1 .3.5.8 1 1.1 1 .2 0 .4-.5.4-1 0-.6-.5-1-1.1-1zm228.3 0c-.3 0 .3.9 1.3 2s2 2 2.3 2c.3 0-.3-.9-1.3-2s-2-2-2.3-2zm38.5 1c-.2 0-1.2 1-2.3 2.2l-1.9 2.3 2.3-1.9c1.2-1.1 2.2-2.1 2.2-2.3 0-.1-.2-.3-.3-.3zm-339.6 1c-.3 0 1 1.6 2.9 3.5s3.6 3.5 3.9 3.5c.3 0-1-1.6-2.9-3.5s-3.6-3.5-3.9-3.5zm138.3 0c-.2 0-.4.2-.4.4s.8 1 1.8 1.7c1.5 1.3 1.6 1.2.3-.4-.7-.9-1.5-1.7-1.7-1.7zm76.2.3c-.3-.4-.6.2-.5 1.3 0 1.1.3 1.4.6.6.3-.7.2-1.6-.1-1.9zm-198.5.7c-1.1 0-2.2.4-2.5.9-.3.4.6.6 1.9.3 1.4-.2 2.5-.6 2.5-.8 0-.2-.9-.4-1.9-.4zm217.5.3c-.3-.4-.6.2-.5 1.3 0 1.1.3 1.4.6.6.3-.7.2-1.6-.1-1.9zm60.7 1.7c-.2 0-.3.1-.3.3 0 .2 1.5 1.6 3.3 3.3l3.2 2.9-2.9-3.3c-1.7-1.7-3.1-3.2-3.3-3.2zm15.7.2c-1.4 0-1.9.2-1.2.5.6.2 1.8.2 2.5 0 .6-.3.1-.5-1.3-.5zm24.6.8c-.2 0-1 .8-1.7 1.7-1.3 1.6-1.2 1.7.4.4.9-.7 1.7-1.5 1.7-1.7 0-.2-.2-.4-.4-.4zm-183.2 2.1c-1.1 0-1.4.3-.6.6.7.3 1.6.2 1.9-.1.4-.3-.2-.6-1.3-.5zm-130 6c-1.1 0-1.4.3-.6.6.7.3 1.6.2 1.9-.1.4-.3-.2-.6-1.3-.5zm210.2.2c-.3-.4-.6.2-.5 1.3 0 1.1.3 1.4.6.6.3-.7.2-1.6-.1-1.9zm78.8.8c-1.1 0-1.4.3-.6.6.7.3 1.6.2 1.9-.1.4-.3-.2-.6-1.3-.5z" fill="#003"/><path d="M426 119.2c-1.9 0-2.7.2-1.7.5.9.2 2.5.2 3.5 0 .9-.3.1-.5-1.8-.5zm80.6 4.1c-.3-.4-.6.2-.5 1.3 0 1.1.3 1.4.6.6.3-.7.2-1.6-.1-1.9z" fill="#FFF" fill-opacity=".03"/><path d="M683.7 27.7c-.3-.6-.5-.1-.5 1.3 0 1.4.2 1.9.5 1.2.2-.6.2-1.8 0-2.5zm-1.1 12.6c-.3-.4-.6.2-.5 1.3 0 1.1.3 1.4.6.6.3-.7.2-1.6-.1-1.9zm-.9 10.4c-.3-.6-.5-.1-.5 1.3 0 1.4.2 1.9.5 1.2.2-.6.2-1.8 0-2.5zm10.3 8.6c-3 0-4.3.2-2.7.4 1.5.2 3.9.2 5.5 0 1.5-.2.2-.4-2.8-.4zm20.4-.2c-1.1 0-1.4.3-.6.6.7.3 1.6.2 1.9-.1.4-.3-.2-.6-1.3-.5zm-73.8 5.2c-.3-.4-.6.2-.5 1.3 0 1.1.3 1.4.6.6.3-.7.2-1.6-.1-1.9zm-245 6.7c-.2 0-1 .8-1.7 1.7-1.3 1.6-1.2 1.7.4.4.9-.7 1.7-1.5 1.7-1.7 0-.2-.2-.4-.4-.4zm130.8 3.1c-1.1 0-1.4.3-.6.6.7.3 1.6.2 1.9-.1.4-.3-.2-.6-1.3-.5zm-99.7 5.6c-.3-.6-.5.1-.5 1.8 0 1.6.2 2.2.5 1.2.2-.9.2-2.3 0-3zm254 4c-.3-.6-.5.1-.5 1.8 0 1.6.2 2.2.5 1.2.2-.9.2-2.3 0-3zm-65.1 5.6c-.3-.4-.6.2-.5 1.3 0 1.1.3 1.4.6.6.3-.7.2-1.6-.1-1.9zm23.8.7c-.2 0-.4.2-.4.4s.8 1 1.8 1.7c1.5 1.3 1.6 1.2.3-.4-.7-.9-1.5-1.7-1.7-1.7zm-190.8 11.3c-.3-.4-.6.2-.5 1.3 0 1.1.3 1.4.6.6.3-.7.2-1.6-.1-1.9zm166.1 6.4c-.2-1.2-.4 0-.4 2.8 0 2.7.2 3.8.4 2.2.2-1.5.2-3.7 0-5zm-17 5c-.3-.6-.5.1-.5 1.8 0 1.6.2 2.2.5 1.2.2-.9.2-2.3 0-3zm-87 6c-.2-1.2-.4 0-.4 2.8 0 2.7.2 3.8.4 2.2.2-1.5.2-3.7 0-5zm-40 0c-.3-.6-.5-.1-.5 1.3 0 1.4.2 1.9.5 1.2.2-.6.2-1.8 0-2.5zm-93.1 6.6c-.3-.4-.6.2-.5 1.3 0 1.1.3 1.4.6.6.3-.7.2-1.6-.1-1.9zm19 1c-.3-.4-.6.2-.5 1.3 0 1.1.3 1.4.6.6.3-.7.2-1.6-.1-1.9zm131.1 8.4c-.2-2.3-.4-.4-.4 4.3s.2 6.6.4 4.2c.2-2.3.2-6.1 0-8.5zm-132.1 1.6c-.3-.4-.6.2-.5 1.3 0 1.1.3 1.4.6.6.3-.7.2-1.6-.1-1.9zm285 3c-.3-.4-.6.2-.5 1.3 0 1.1.3 1.4.6.6.3-.7.2-1.6-.1-1.9zm-209.9 6.9c-.3-.9-.5-.1-.5 1.8 0 1.9.2 2.7.5 1.7.2-.9.2-2.5 0-3.5zm.9 19.1c-.3-.4-.6.2-.5 1.3 0 1.1.3 1.4.6.6.3-.7.2-1.6-.1-1.9zm120.8 2.8c-1.1 0-1.4.3-.6.6.7.3 1.6.2 1.9-.1.4-.3-.2-.6-1.3-.5z" fill="#333"/><path d="M579.7 114.7c-.3-.6-.5-.1-.5 1.3 0 1.4.2 1.9.5 1.2.2-.6.2-1.8 0-2.5zM417.4 119c-.3 0-.7.7-1.1 1.5-.3.9-.3 1.8-.1 2.1.3.3.8-.4 1.1-1.6.3-1.1.3-2 .1-2z" fill="#FFF" fill-opacity=".02"/><path d="M422.4 69c-.2 0-.4.2-.4.4s.8 1 1.8 1.7c1.5 1.3 1.6 1.2.3-.4-.7-.9-1.5-1.7-1.7-1.7zm4.4 4.5c-.3-.3-.9.2-1.2 1.2-.6 1.4-.5 1.5.5.6.7-.7 1-1.5.7-1.8zm24 4.5c-.2 0-1 .5-1.8 1-.9.6-1 1-.3 1 .6 0 1.5-.5 1.8-1 .3-.6.5-1 .3-1zM78.7 81c-.2 0-1.2 1-2.3 2.2l-1.9 2.3 2.3-1.9c1.2-1.1 2.2-2.1 2.2-2.3 0-.1-.2-.3-.3-.3zm501.9 17.3c-.3-.4-.6.2-.5 1.3 0 1.1.3 1.4.6.6.3-.7.2-1.6-.1-1.9zm-519 4c-.3-.4-.6.2-.5 1.3 0 1.1.3 1.4.6.6.3-.7.2-1.6-.1-1.9z" fill="#FFF" fill-opacity=".01"/><path d="M507.7 118.7c-.2-1.2-.4 0-.4 2.8 0 2.7.2 3.8.4 2.2.2-1.5.2-3.7 0-5z" fill="#929294" fill-opacity=".51"/><path d="m187.3 23.2-4.3-1v4c0 2.2.7 6.7 1.6 10.1.8 3.3 2.6 8.2 3.9 10.8 1.4 2.6 4.4 6.3 6.7 8.2 2.4 1.9 6.1 4 8.3 4.6 2.2.6 4.6 1.1 5.3 1.1.8 0 1.2-1.8 1.2-5.8 0-3.2-.7-8.5-1.5-11.7-.9-3.3-2.8-7.8-4.3-9.9-1.5-2.1-4.9-5.2-7.7-6.7-2.7-1.5-6.9-3.2-9.2-3.7z" fill="#3F0"/><path d="M185.4 22.1c-1.1 0-1.4.3-.6.6.7.3 1.6.2 1.9-.1.4-.3-.2-.6-1.3-.5zm-2.8 2.2c-.3-.4-.6.2-.5 1.3 0 1.1.3 1.4.6.6.3-.7.2-1.6-.1-1.9zm10-.3c-.5 0-.7.2-.5.4.2.2 1.5.9 2.9 1.5 2.4 1.1 2.4 1.1.6-.3-1.1-.9-2.4-1.6-3-1.6zm-9 8.3c-.3-.4-.6.2-.5 1.3 0 1.1.3 1.4.6.6.3-.7.2-1.6-.1-1.9zm7.6 19.7c-.3 0 .5 1.1 1.8 2.5s2.6 2.5 2.8 2.5c.3 0-.5-1.1-1.8-2.5s-2.6-2.5-2.8-2.5z" fill="#6F3"/><path d="M429.4 119c-.2 0-.4.2-.4.4s.8 1 1.8 1.7c1.5 1.3 1.6 1.2.3-.4-.7-.9-1.5-1.7-1.7-1.7z" fill="#FFF" fill-opacity=".03"/><path d="M425.5 118.2c-1.6 0-2.2.2-1.2.5.9.2 2.3.2 3 0 .6-.3-.1-.5-1.8-.5z" fill="#FFFFDB" fill-opacity=".03"/><path d="M442.5 79.2c-1.6 0-2.2.2-1.2.5.9.2 2.3.2 3 0 .6-.3-.1-.5-1.8-.5z" fill="#FFFFD4" fill-opacity=".02"/><path d="M54 25.2c-1.9 0-2.7.2-1.7.5.9.2 2.5.2 3.5 0 .9-.3.1-.5-1.8-.5zm294.5.2c-4.9 0-6.8.1-4.2.3 2.6.2 6.7.2 9 0s.2-.3-4.8-.3zm-305 .8c-1.6 0-2.2.2-1.2.5.9.2 2.3.2 3 0 .6-.3-.1-.5-1.8-.5zm-6.1.9c-1.1 0-1.4.3-.6.6.7.3 1.6.2 1.9-.1.4-.3-.2-.6-1.3-.5zm321.2.2c-.3-.4-.6.2-.5 1.3 0 1.1.3 1.4.6.6.3-.7.2-1.6-.1-1.9zm0 7c-.3-.4-.6.2-.5 1.3 0 1.1.3 1.4.6.6.3-.7.2-1.6-.1-1.9zm0 4c-.3-.4-.6.2-.5 1.3 0 1.1.3 1.4.6.6.3-.7.2-1.6-.1-1.9zM12.7 39c-.2 0-1.6 1.5-3.3 3.2l-2.9 3.3 3.3-2.9c1.7-1.7 3.2-3.1 3.2-3.3 0-.2-.1-.3-.3-.3zm345.9 3.3c-.3-.4-.6.2-.5 1.3 0 1.1.3 1.4.6.6.3-.7.2-1.6-.1-1.9zm0 4c-.3-.4-.6.2-.5 1.3 0 1.1.3 1.4.6.6.3-.7.2-1.6-.1-1.9zm-305.2.8c-1.1 0-1.4.3-.6.6.7.3 1.6.2 1.9-.1.4-.3-.2-.6-1.3-.5zm305.2 3.2c-.3-.4-.6.2-.5 1.3 0 1.1.3 1.4.6.6.3-.7.2-1.6-.1-1.9zm0 4c-.3-.4-.6.2-.5 1.3 0 1.1.3 1.4.6.6.3-.7.2-1.6-.1-1.9zm0 4c-.3-.4-.6.2-.5 1.3 0 1.1.3 1.4.6.6.3-.7.2-1.6-.1-1.9zm-336 .7c-.2 0-1 .8-1.7 1.7-1.3 1.6-1.2 1.7.4.4.9-.7 1.7-1.5 1.7-1.7 0-.2-.2-.4-.4-.4zm336 3.3c-.3-.4-.6.2-.5 1.3 0 1.1.3 1.4.6.6.3-.7.2-1.6-.1-1.9zm0 4c-.3-.4-.6.2-.5 1.3 0 1.1.3 1.4.6.6.3-.7.2-1.6-.1-1.9zm-19.9.7c-.1 0-1.1.7-2.1 1.5-1.6 1.2-1.7 1.5-.4 1.5.9 0 1.8-.7 2.2-1.5.3-.8.4-1.5.3-1.5zM17.4 68c-.3 0-.7.7-1.1 1.5-.3.9-.3 1.8-.1 2.1.3.3.8-.4 1.1-1.6.3-1.1.3-2 .1-2zm96.6.2c-1.9 0-2.7.2-1.7.5.9.2 2.5.2 3.5 0 .9-.3.1-.5-1.8-.5zm10 0c-1.9 0-2.7.2-1.7.5.9.2 2.5.2 3.5 0 .9-.3.1-.5-1.8-.5zm83 0c-1.4 0-1.9.2-1.2.5.6.2 1.8.2 2.5 0 .6-.3.1-.5-1.3-.5zm-99.6.9c-1.1 0-1.4.3-.6.6.7.3 1.6.2 1.9-.1.4-.3-.2-.6-1.3-.5zm116 0c-1.1 0-1.4.3-.6.6.7.3 1.6.2 1.9-.1.4-.3-.2-.6-1.3-.5zm-120.4 1c-.8 0-2.2.4-3 .9-.8.5-1 .9-.5.9.6 0 1.9-.4 3-.9 1.3-.6 1.5-.9.5-.9zm124.5-.1c-.5 0-.3.5.5 1s2 1 2.5 1c.6 0 .3-.5-.5-1s-1.9-1-2.5-1zm131.1.3c-.3-.4-.6.2-.5 1.3 0 1.1.3 1.4.6.6.3-.7.2-1.6-.1-1.9zm-343 4c-.3-.4-.6.2-.5 1.3 0 1.1.3 1.4.6.6.3-.7.2-1.6-.1-1.9zm343 7c-.3-.4-.6.2-.5 1.3 0 1.1.3 1.4.6.6.3-.7.2-1.6-.1-1.9zm0 4c-.3-.4-.6.2-.5 1.3 0 1.1.3 1.4.6.6.3-.7.2-1.6-.1-1.9zm-282 .7c-.2 0-1 .8-1.7 1.7-1.3 1.6-1.2 1.7.4.4.9-.7 1.7-1.5 1.7-1.7 0-.2-.2-.4-.4-.4zm177.5.7c-1-.9-1.1-.8-.5.6.3 1 .9 1.5 1.2 1.2.3-.3 0-1.1-.7-1.8zM115 89.2c-1.4 0-1.9.2-1.2.5.6.2 1.8.2 2.5 0 .6-.3.1-.5-1.3-.5zm7 0c-1.4 0-1.9.2-1.2.5.6.2 1.8.2 2.5 0 .6-.3.1-.5-1.3-.5zm84.4-.1c-1.1 0-1.4.3-.6.6.7.3 1.6.2 1.9-.1.4-.3-.2-.6-1.3-.5zm9 0c-1.1 0-1.4.3-.6.6.7.3 1.6.2 1.9-.1.4-.3-.2-.6-1.3-.5zm143.2.2c-.3-.4-.6.2-.5 1.3 0 1.1.3 1.4.6.6.3-.7.2-1.6-.1-1.9zm-27.2 1.8c-1.1 0-1.4.3-.6.6.7.3 1.6.2 1.9-.1.4-.3-.2-.6-1.3-.5zM37.5 92.4c-8.8 0-12.3.2-7.7.3 4.6.2 11.8.2 16 0 4.2-.1.5-.3-8.3-.3zm65.6-.4c-.6 0-1.3.4-1.6 1-.3.6.1.7.9.4.9-.3 1.6-.8 1.6-1 0-.2-.4-.4-.9-.4zm234 .7c-1-.9-1.1-.8-.5.6.3 1 .9 1.5 1.2 1.2.3-.3 0-1.1-.7-1.8zm21.5.6c-.3-.4-.6.2-.5 1.3 0 1.1.3 1.4.6.6.3-.7.2-1.6-.1-1.9zM99.1 94c-.6 0-1.3.4-1.6 1-.3.6.1.7.9.4.9-.3 1.6-.8 1.6-1 0-.2-.4-.4-.9-.4zm187 0c-.6 0-1.3.4-1.6 1-.3.6.1.7.9.4.9-.3 1.6-.8 1.6-1 0-.2-.4-.4-.9-.4zM69.8 95.5c-.3-.3-.9.2-1.2 1.2-.6 1.4-.5 1.5.5.6.7-.7 1-1.5.7-1.8zm167.7 4.7-4.9-4.7 4.4 5.1c2.5 2.7 4.7 4.9 5 4.7.2-.2-1.8-2.5-4.5-5.1zM59.6 97.3c-.3-.4-.6.2-.5 1.3 0 1.1.3 1.4.6.6.3-.7.2-1.6-.1-1.9zm81.5-.3c-.3 0 1 1.6 2.9 3.5s3.6 3.5 3.9 3.5c.3 0-1-1.6-2.9-3.5s-3.6-3.5-3.9-3.5zm217.5.3c-.3-.4-.6.2-.5 1.3 0 1.1.3 1.4.6.6.3-.7.2-1.6-.1-1.9zm-171.9.7c-.2 0-1.4 1.2-2.8 2.7l-2.4 2.8 2.8-2.4c1.5-1.4 2.7-2.6 2.7-2.8 0-.2-.1-.3-.3-.3zM67.8 99.5c-.3-.3-.9.2-1.2 1.2-.6 1.4-.5 1.5.5.6.7-.7 1-1.5.7-1.8zm290.8 1.8c-.3-.4-.6.2-.5 1.3 0 1.1.3 1.4.6.6.3-.7.2-1.6-.1-1.9zm-270 2.7c-.2 0-.9.7-1.6 1.5-.7.9-1.1 1.7-.9 2 .3.2 1-.5 1.7-1.5.7-1.1 1-2 .8-2zm270 1.3c-.3-.4-.6.2-.5 1.3 0 1.1.3 1.4.6.6.3-.7.2-1.6-.1-1.9zM179.5 107c-.2 0-.7.5-1 1.1-.4.6-.5 1.2-.2 1.5.2.3.7-.2 1-1.1.4-.8.5-1.5.2-1.5zm-119.9 1.3c-.3-.4-.6.2-.5 1.3 0 1.1.3 1.4.6.6.3-.7.2-1.6-.1-1.9zm184.5.4c-1-.9-1.1-.8-.5.6.3 1 .9 1.5 1.2 1.2.3-.3 0-1.1-.7-1.8zm-180.5 1.6c-.3-.4-.6.2-.5 1.3 0 1.1.3 1.4.6.6.3-.7.2-1.6-.1-1.9zm113.9.7c-.2 0-.7.5-1 1.1-.4.6-.5 1.2-.2 1.5.2.3.7-.2 1-1.1.4-.8.5-1.5.2-1.5zM55 114.2c-1.4 0-1.9.2-1.2.5.6.2 1.8.2 2.5 0 .6-.3.1-.5-1.3-.5zm214.6 1.1c-.3-.4-.6.2-.5 1.3 0 1.1.3 1.4.6.6.3-.7.2-1.6-.1-1.9zm89 5c-.3-.4-.6.2-.5 1.3 0 1.1.3 1.4.6.6.3-.7.2-1.6-.1-1.9zM61.4 125c-.2 0-.4.4-.4.9 0 .6.4 1.3 1 1.6.6.3.7-.1.4-.9-.3-.9-.8-1.6-1-1.6zm297.3 1.2c-.3-.9-.5.1-.4 2.3 0 2.2.2 3 .4 1.7.2-1.2.2-3 0-4zm-88.3 8.8c-.2 0-.4.6-.4 1.4 0 .8.4 1.7.9 2 .5.4.7-.3.4-1.4-.3-1.1-.7-2-.9-2zm-206.8 2.3c-.3-.4-.6.2-.5 1.3 0 1.1.3 1.4.6.6.3-.7.2-1.6-.1-1.9zm208.8 2.7c-.2 0-.4.4-.4.9 0 .6.4 1.3 1 1.6.6.3.7-.1.4-.9-.3-.9-.8-1.6-1-1.6zm-207 4c-.2 0-.4.4-.4.9 0 .6.4 1.3 1 1.6.6.3.7-.1.4-.9-.3-.9-.8-1.6-1-1.6zm267.5.6c-.3-.3-1.1.5-1.8 1.7-1.3 2.1-1.2 2.1.5.5 1-1 1.6-2 1.3-2.2zm-318.2 8.6c-.1-4.8-.3-.8-.3 8.8 0 9.6.2 13.6.3 8.7.2-4.8.2-12.6 0-17.5zm226.1-8.2c-.2 0-2.2 1.8-4.3 4.1-2.2 2.2-3.3 3.7-2.5 3.4.8-.4 2.8-2.2 4.3-4.1 1.6-1.9 2.7-3.4 2.5-3.4zm-58.6 1c-.3 0 .5 1.1 1.8 2.5s2.6 2.5 2.8 2.5c.3 0-.5-1.1-1.8-2.5s-2.6-2.5-2.8-2.5zm-23.8 4c-.2 0-.4.4-.4 1 0 .5.5 1 1.1 1 .5 0 .7-.5.4-1-.3-.6-.8-1-1.1-1zm168.2 1c-.2 0-1 .8-1.7 1.7-1.3 1.6-1.2 1.7.4.4.9-.7 1.7-1.5 1.7-1.7 0-.2-.2-.4-.4-.4zm-134.9 3.1c-2.1-1.3-2.1-1.2-.5.5 1 1 2 1.6 2.2 1.3.3-.3-.5-1.1-1.7-1.8zm157 2.9c-.2 0-1.2 1-2.3 2.2l-1.9 2.3 2.3-1.9c1.2-1.1 2.2-2.1 2.2-2.3 0-.1-.2-.3-.3-.3zM74 159.6c-.8-.4.7 1.6 3.5 4.3 2.7 2.8 5.1 5.1 5.3 5.1.3 0-1.3-2-3.4-4.4-2.2-2.4-4.6-4.7-5.4-5zm131.4-.5c-1.1 0-1.4.3-.6.6.7.3 1.6.2 1.9-.1.4-.3-.2-.6-1.3-.5zm11 0c-1.1 0-1.4.3-.6.6.7.3 1.6.2 1.9-.1.4-.3-.2-.6-1.3-.5zm39.2.9c-.2 0-1 .8-1.7 1.7-1.3 1.6-1.2 1.7.4.4.9-.7 1.7-1.5 1.7-1.7 0-.2-.2-.4-.4-.4zm86.3 4c-.2 0-1.3.7-2.3 1.5-1.1.8-1.7 1.7-1.4 2 .2.3 1.3-.4 2.3-1.5 1-1.1 1.6-2 1.4-2zm-91.3 1c-.3 0-1.2.7-2 1.6-.9.8-1.6 1.8-1.6 2.1 0 .3.9-.2 2-1.2s2-2 2-2.2c0-.1-.2-.3-.4-.3zm-95 2c-.3 0-1.8 1.2-3.3 2.6l-2.8 2.5 3.3-2.2c1.7-1.3 3.2-2.4 3.2-2.6 0-.2-.2-.3-.4-.3zm21.3 2c-1-.6-1.9-.9-1.9-.7 0 .3 1.2 1.2 2.6 2.2 1.5.9 2.3 1.2 2 .6-.4-.6-1.6-1.6-2.7-2.1zm98 3c-.5 0-.9.2-.9.4s.7.7 1.6 1c.8.3 1.2.2.9-.4-.3-.6-1-1-1.6-1zm-36.8 2c-.6 0-1.3.4-1.6 1-.3.6.1.7.9.4.9-.3 1.6-.8 1.6-1 0-.2-.4-.4-.9-.4zm-97.6 2c-.5 0-1.7.5-2.5 1s-1 1-.5 1c.6 0 1.7-.5 2.5-1s1.1-1 .5-1zm49 0c-.5 0-.3.5.5 1s2 1 2.5 1c.6 0 .3-.5-.5-1s-1.9-1-2.5-1zm5.5 2.1c-1 0-.8.3.5.9 1.1.5 2.5.9 3 .9.6 0 .3-.4-.5-.9s-2.2-.9-3-.9zm96.4 0c-1.1 0-1.4.3-.6.6.7.3 1.6.2 1.9-.1.4-.3-.2-.6-1.3-.5zM112 180.2c-1.9 0-2.7.2-1.7.5.9.2 2.5.2 3.5 0 .9-.3.1-.5-1.8-.5zm12 0c-1.9 0-2.7.2-1.7.5.9.2 2.5.2 3.5 0 .9-.3.1-.5-1.8-.5zm81.5 0c-1.6 0-2.2.2-1.2.5.9.2 2.3.2 3 0 .6-.3-.1-.5-1.8-.5zm12 0c-1.6 0-2.2.2-1.2.5.9.2 2.3.2 3 0 .6-.3-.1-.5-1.8-.5zm84 0c-1.6 0-2.2.2-1.2.5.9.2 2.3.2 3 0 .6-.3-.1-.5-1.8-.5zm6.9-.1c-1.1 0-1.4.3-.6.6.7.3 1.6.2 1.9-.1.4-.3-.2-.6-1.3-.5z" fill="#F96"/><path d="M46.4 47.1c-1.1 0-1.4.3-.6.6.7.3 1.6.2 1.9-.1.4-.3-.2-.6-1.3-.5zm172 21c-1.1 0-1.4.3-.6.6.7.3 1.6.2 1.9-.1.4-.3-.2-.6-1.3-.5zm-100 21c-1.1 0-1.4.3-.6.6.7.3 1.6.2 1.9-.1.4-.3-.2-.6-1.3-.5zm92.6.1c-1.9 0-2.7.2-1.7.5.9.2 2.5.2 3.5 0 .9-.3.1-.5-1.8-.5z" fill="#FC6"/><g fill="#F93" stroke-width="0"><path d="M53 26.4c-3.6-.1-7.6 0-9 .2-1.4.3-5.6 1.2-9.5 2-3.8.9-9.5 3-12.5 4.6-3 1.7-8.3 5.7-11.6 9-3.4 3.3-7.1 7.9-8.3 10.2C0 56.7 0 57.4 0 118.3c0 55.1.2 61.5 1.6 62.1.9.3 3.4.6 5.7.6 2.3 0 4.7-.4 5.3-.8.8-.5 1.3-10.4 1.5-32.7.3-27.2.6-32.1 1.9-32.7.8-.4 10.6-.7 21.7-.7 11.1-.1 20.4-.5 20.7-.9.2-.4.6-4.9.7-10 .2-5 0-9.5-.4-9.9-.4-.3-9.6-.5-20.5-.4-18.8.2-19.8.1-21.6-1.8-1.6-1.8-1.8-3.2-1.3-11.3.4-7.2 1.1-10.4 3-14.3 1.4-2.8 4.2-6.7 6.4-8.7 2.1-2 6.5-4.9 9.8-6.4 4.7-2.2 8.1-2.9 15.5-3.3l9.5-.6v-20l-6.5-.1zm295.6-.4c-5.1 0-9.6.3-10 .7-.4.4-.6 9.7-.6 20.8 0 11 .1 20.5 0 21.2 0 .8-6.4 1.2-23.2 1.5-16.8.3-24.1.8-26.3 1.7-1.6.8-3.6 1.5-4.3 1.7-.7.1-3.6 1.5-6.5 2.9-2.9 1.5-7.4 4.6-10.2 6.9-2.7 2.2-5.6 4.9-6.3 5.8-.7 1-2.1 1.8-3 1.8-1 0-2.4-1-3.2-2.2-.8-1.2-2.8-3.4-4.4-4.8-1.6-1.4-3.6-3.2-4.5-4-.9-.9-3.3-2.6-5.3-3.8-2-1.2-6.2-3.1-9.5-4.2-3.2-1-8.8-2.4-12.4-2.9-4.5-.7-9.1-.8-14.3-.1-4.3.5-9.8 1.7-12.3 2.5-2.6.9-6 2.4-7.7 3.3-1.7.9-5.4 3.4-8.3 5.5-2.9 2-6.5 5.3-8 7.2-1.5 1.9-3.2 3.5-3.8 3.5-.5 0-1.7-1.3-2.6-2.8-.9-1.6-4.5-5-7.9-7.7-3.5-2.6-8.5-5.7-11-6.8-2.5-1.1-6.1-2.4-8-2.9-1.9-.5-6.3-1.3-9.8-1.8-3.8-.5-9.1-.4-13 .1-3.7.5-9.7 1.9-13.4 2.9-3.6 1.1-9.3 3.8-12.7 6.1-3.3 2.2-8.2 6.8-10.9 10.2-2.6 3.4-6.1 8.8-7.6 12-1.5 3.2-3.4 8.8-4.2 12.5-.8 3.7-1.4 9.4-1.3 12.7 0 3.3.7 8.7 1.6 12 .8 3.3 2.8 8.9 4.5 12.5 2 4.3 5.4 8.9 10.1 13.7 5 5.1 9 8.1 14.1 10.6 3.9 1.9 9.6 4.1 12.6 4.8 3 .7 9.8 1.2 15 1.2 8-.1 10.9-.7 18-3.3 4.6-1.7 10.4-4.6 12.8-6.3 2.4-1.8 6.2-4.7 8.3-6.6 2.1-1.8 3.9-4 3.9-4.7 0-.8.9-1.4 2.1-1.4 1.1 0 1.8.4 1.5.8-.3.5 1.4 2.7 3.7 4.9 2.3 2.2 6.7 5.6 9.8 7.6 3.1 2 9.2 4.8 13.5 6.3 6.5 2.2 9.6 2.6 17.9 2.6 7.4 0 11.8-.6 16.8-2.2 3.8-1.2 9-3.3 11.5-4.7 2.6-1.4 6-3.7 7.5-5.2 1.6-1.4 4.3-4.1 6-5.8 1.7-1.8 3.5-3.3 4.1-3.3.6 0 3.8 2.5 7 5.5 3.3 3 6.5 5.5 7.2 5.5.7 0 1.4.4 1.6.8.2.4 2.6 1.8 5.3 3.1 2.8 1.3 8.4 3.2 12.5 4.3 4.1 1 10 2 13 2 3.4.1 8.2-.7 12.5-2.1 3.9-1.3 8.8-3.2 11-4.3 2.2-1 5-2.5 6.1-3.1 1.2-.7 3.4-2.4 4.9-3.7 1.6-1.4 4.6-4.3 6.7-6.5 2.1-2.2 5.2-6.3 6.8-9 1.5-2.8 3.6-7.9 4.5-11.5 1.5-5.7 1.8-12.9 1.9-58 0-28.3-.1-52.5-.3-53.8-.3-2.1-.8-2.2-9.5-2.2zM120.7 89.5c5.2.2 8.9 1.1 13 3 3.1 1.5 8 5 10.8 7.9 2.8 2.8 5.9 6.9 7 9.1 1 2.2 1.8 4.6 1.8 5.2 0 .7.4 1.3.8 1.3s1-.4 1.3-.9c.3-.5.8-2.6 1.1-4.6.2-2 2.1-7 4.1-11.1 2-4.1 3.9-7.4 4.3-7.4.4 0 2.1 2.8 3.8 6.2 1.7 3.5 3.6 7.9 4.2 9.8.6 1.9 1.5 5.3 2 7.5.9 3.8.9 3.9 1 .8.1-1.7 1.1-5.1 2.4-7.4 1.2-2.4 4.1-6.3 6.4-8.6 2.3-2.3 7-5.7 10.5-7.5 5.8-3 7-3.2 15.8-3.2 8.5 0 10.2.3 15.5 2.9 3.3 1.6 8.1 4.9 10.7 7.3 2.7 2.5 4.8 5 4.8 5.7 0 .7.6 1.8 1.3 2.4.8.6 2 3 2.7 5.3l1.3 4.3 1.3-5.2c.7-2.9 2-6.9 2.9-9 .9-2.1 2.8-5.5 4.2-7.6 2.6-3.7 2.6-3.7 3.9-1.5.7 1.3 2 3.6 2.8 5.3.9 1.6 2.4 5.7 3.5 9 1.6 4.9 1.9 8.2 1.6 17.5-.2 6.3-1 13.5-1.8 16s-2.7 6.9-4.3 9.8c-1.5 2.9-3.2 5.1-3.8 4.9-.6-.2-2.5-3.2-4.3-6.8-1.8-3.5-3.3-7.6-3.3-9.1s-.4-3-1-3.3c-.5-.3-1-1.7-1-3.1 0-1.3-.5-2.4-1.1-2.4-.5 0-.7.4-.4 1 .3.5-.8 3.6-2.5 6.7-1.7 3.2-4.3 7.1-5.8 8.8-1.5 1.6-4 3.8-5.6 4.8-1.5 1-5.7 2.9-9.2 4.3-4 1.5-8.6 2.4-12.1 2.4-3.1 0-8.7-1-12.5-2.2-5.5-1.8-8.1-3.4-12.7-7.8-3.2-3-6.8-7.4-8-9.7-1.1-2.3-2.1-5.5-2.2-7-.1-2.6-.2-2.6-1.1.7-.5 1.9-1.5 5.3-2.1 7.5-.6 2.2-2.4 6.6-4 9.7-1.6 3.2-3.3 5.8-3.7 5.8-.4 0-2.3-3-4.1-6.8-1.8-3.7-3.6-7.5-4.2-8.6-.5-1-1.2-7.1-1.5-13.5l-.7-11.6-.6 9.5c-.3 6.1-1.2 10.9-2.4 13.5-1 2.2-4.1 6.2-6.9 9-2.8 2.7-7.8 6.3-11.1 7.9-5.1 2.5-7.3 2.9-14.5 3-5 .1-9.9-.5-12-1.3-1.9-.7-4.8-1.9-6.5-2.7-1.6-.7-5.3-3.7-8-6.6-2.8-2.9-6-7.1-7.2-9.3-1.2-2.2-2.5-6.7-3-10.1-.6-4.2-.6-7.5.3-11 .7-2.7 1.9-6.6 2.7-8.7.7-2.1 3.8-6.3 6.8-9.3 3-3.1 7.3-6.4 9.6-7.5 2.3-1 5.9-2.3 8-2.9 2.1-.5 7.1-.8 11-.5zm207.1 2.1c4.5 0 8.7.5 9.3 1.1.8.8 1 7.6.7 22-.4 20-.5 21-3.1 26.3-1.4 3.1-4.2 7-6 8.8-1.9 1.8-6.1 4.6-9.3 6.1-3.3 1.5-8 3.1-10.4 3.5-2.5.3-7.2.2-10.4-.4-3.3-.5-8.3-2.1-11-3.4-2.8-1.4-6.9-4.2-9.1-6.4-2.2-2.1-5.1-5.8-6.4-8.3-2.1-3.9-2.5-5.9-2.7-16.7-.2-6.7 0-12.2.5-12.2.4 0 1.6-1.8 2.6-4s3.9-6 6.5-8.4c2.5-2.4 6.2-5.1 8.1-5.9 2.5-1.3 7.1-1.7 17.9-1.9 8-.2 18.2-.3 22.8-.2zM158.4 150c.3 0 .8.4 1.1 1 .3.5.1 1-.4 1-.6 0-1.1-.5-1.1-1 0-.6.2-1 .4-1z"/><path d="M247.7 120.2c-.2-1.5-.4-.2-.4 2.8s.2 4.3.4 2.7c.2-1.5.2-3.9 0-5.5z"/></g><path d="M29.4 90.1c-1.1 0-1.4.3-.6.6.7.3 1.6.2 1.9-.1.4-.3-.2-.6-1.3-.5z" fill="#FFEDDB" fill-opacity=".05"/><path d="M506.7 118.2c-.3-.9-.5-.1-.5 1.8 0 1.9.2 2.7.5 1.7.2-.9.2-2.5 0-3.5z" fill="#DFDFDF" fill-opacity=".03"/><path d="M679.7 108.2c-.3-.9-.5.1-.4 2.3 0 2.2.2 3 .4 1.7.2-1.2.2-3 0-4zm-.1 14.1c-.3-.4-.6.2-.5 1.3 0 1.1.3 1.4.6.6.3-.7.2-1.6-.1-1.9z" fill="#E8E8E8" fill-opacity=".04"/><path d="M60.7 36.7c-.3-.6-.5.1-.5 1.8 0 1.6.2 2.2.5 1.2.2-.9.2-2.3 0-3z" fill="#FDC668" fill-opacity=".91"/><path d="M337.6 60.3c-.3-.4-.6.2-.5 1.3 0 1.1.3 1.4.6.6.3-.7.2-1.6-.1-1.9z" fill="#FD9C65" fill-opacity=".89"/><path d="M60.6 41.3c-.3-.4-.6.2-.5 1.3 0 1.1.3 1.4.6.6.3-.7.2-1.6-.1-1.9z" fill="#FEC668" fill-opacity=".9"/><path d="M61.6 41.3c-.3-.4-.6.2-.5 1.3 0 1.1.3 1.4.6.6.3-.7.2-1.6-.1-1.9zM306 93.2c-1.4 0-1.9.2-1.2.5.6.2 1.8.2 2.5 0 .6-.3.1-.5-1.3-.5z" fill="#FADBB2" fill-opacity=".2"/><path d="M394.6 151.3c-.3-.4-.6.2-.5 1.3 0 1.1.3 1.4.6.6.3-.7.2-1.6-.1-1.9z" fill="#B0B0B0" fill-opacity=".16"/><path d="M61.6 38.3c-.3-.4-.6.2-.5 1.3 0 1.1.3 1.4.6.6.3-.7.2-1.6-.1-1.9z" fill="#FAE0B2" fill-opacity=".2"/><path d="M34.4 90.1c-1.1 0-1.4.3-.6.6.7.3 1.6.2 1.9-.1.4-.3-.2-.6-1.3-.5z" fill="#FFE4D7" fill-opacity=".07"/><path d="M427.9 121c-.5 0-.7.4-.4 1 .3.5.8 1 1.1 1 .2 0 .4-.5.4-1 0-.6-.5-1-1.1-1z" fill="#FFF" fill-opacity=".04"/><path d="M431.8 56c-5.1 0-10.1.5-11 1.1-1 .5-1.8 1.9-1.8 3.1 0 1.1 2.1 3.9 4.8 6.5 2.6 2.4 6.6 5.7 8.9 7.4 3.2 2.2 5.3 2.9 9 2.9 2.7 0 5.7-.6 6.6-1.3.9-.6 2-3.2 2.3-5.7.3-2.5.1-5.7-.5-7.2-.6-1.6-2.7-3.6-5-4.8-3.2-1.6-5.9-2-13.3-2zm-44.6 5.1c-1.5 0-6.3 1-10.7 2.3-4.4 1.2-9 2.8-10.2 3.4-1.3.7-2.3 2.2-2.3 3.3 0 1.1.4 2.9 1 3.9.5 1 2.5 2.3 4.2 2.9 2.1.6 5.5.7 9 .2 3.5-.4 7.3-1.8 9.8-3.5 4.1-2.7 4.2-2.9 3.6-6.8-.4-2.3-.9-4.5-1.2-5-.3-.4-1.7-.8-3.2-.7z" fill="#FFF"/><path d="M429.1 120.7c-1-.9-1.1-.8-.5.6.3 1 .9 1.5 1.2 1.2.3-.3 0-1.1-.7-1.8z" fill="#FFF" fill-opacity=".04"/><path d="M688.4 58.1c-1.1 0-1.4.3-.6.6.7.3 1.6.2 1.9-.1.4-.3-.2-.6-1.3-.5z" fill="#90949B" fill-opacity=".48"/><path d="M658.4 59.1c-1.1 0-1.4.3-.6.6.7.3 1.6.2 1.9-.1.4-.3-.2-.6-1.3-.5z" fill="#38383A" fill-opacity=".91"/><path d="M468.7 132.7c-.3-.6-.5-.1-.5 1.3 0 1.4.2 1.9.5 1.2.2-.6.2-1.8 0-2.5z" fill="#37373A" fill-opacity=".9"/><path d="M16.6 153.3c-.3-.4-.6.2-.5 1.3 0 1.1.3 1.4.6.6.3-.7.2-1.6-.1-1.9z" fill="#F7E1CA" fill-opacity=".13"/><path d="M118.4 66.1c-1.1 0-1.4.3-.6.6.7.3 1.6.2 1.9-.1.4-.3-.2-.6-1.3-.5z" fill="#F4EAD4" fill-opacity=".09"/><path d="M337.6 107.3c-.3-.4-.6.2-.5 1.3 0 1.1.3 1.4.6.6.3-.7.2-1.6-.1-1.9z" fill="#FD9D65" fill-opacity=".9"/><path d="M15.6 141.3c-.3-.4-.6.2-.5 1.3 0 1.1.3 1.4.6.6.3-.7.2-1.6-.1-1.9z" fill="#FEC669" fill-opacity=".89"/><path d="M15.6 157.3c-.3-.4-.6.2-.5 1.3 0 1.1.3 1.4.6.6.3-.7.2-1.6-.1-1.9z" fill="#FEC86A" fill-opacity=".87"/><path d="M15.7 137.7c-.3-.6-.5-.1-.5 1.3 0 1.4.2 1.9.5 1.2.2-.6.2-1.8 0-2.5z" fill="#FDC669" fill-opacity=".89"/><path d="M164.9 92c-.4 0-2.3 3.3-4.3 7.4-2 4.1-3.9 9.1-4.2 11.2-.2 2.1-.8 4.2-1.2 4.6-.4.4-.4 6 0 12.4.4 6.5 1.1 12.7 1.6 13.8.4 1.2 2.3 5.1 4.1 8.8 1.8 3.8 3.7 6.8 4.1 6.8.5 0 2.2-2.8 3.8-6.2 1.7-3.5 3.6-7.9 4.4-9.8.8-2.3 1.3-8 1.3-16.5 0-8.6-.5-14.2-1.4-16.5-.7-1.9-2.7-6.3-4.4-9.8-1.7-3.4-3.4-6.2-3.8-6.2zm94.7 2.2c-1.3-2.3-1.4-2.3-4.4 2.3-1.7 2.6-4 7.5-5.1 10.8-1.2 3.4-2.1 7.3-2.1 8.7 0 1.4.3 4.9.6 7.9.4 3.3.2 5.1-.3 4.8-.6-.4-.8 1.1-.6 3.6.2 2.3.9 4.6 1.4 5.1.5.6.9 2.1.9 3.5 0 1.5 1.5 5.5 3.3 9 1.8 3.6 3.7 6.6 4.3 6.8.6.2 2.3-2 3.8-4.9 1.6-2.9 3.5-7.3 4.3-9.8.8-2.5 1.6-9.7 1.8-16 .3-9.3 0-12.6-1.6-17.5-1.1-3.3-2.6-7.4-3.5-9-.8-1.7-2.1-4-2.8-5.3z" fill="#F90"/><path d="M298.4 92.1c-1.1 0-1.4.3-.6.6.7.3 1.6.2 1.9-.1.4-.3-.2-.6-1.3-.5z" fill="#FDC667" fill-opacity=".91"/><path d="M336.7 97.7c-.3-.6-.5-.1-.5 1.3 0 1.4.2 1.9.5 1.2.2-.6.2-1.8 0-2.5zm-.1 9.6c-.3-.4-.6.2-.5 1.3 0 1.1.3 1.4.6.6.3-.7.2-1.6-.1-1.9z" fill="#F9DBB8" fill-opacity=".17"/><path d="M337.6 97.3c-.3-.4-.6.2-.5 1.3 0 1.1.3 1.4.6.6.3-.7.2-1.6-.1-1.9z" fill="#FC9C65" fill-opacity=".9"/><path d="M60.7 100.7c-.3-.6-.5-.1-.5 1.3 0 1.4.2 1.9.5 1.2.2-.6.2-1.8 0-2.5z" fill="#F9C891" fill-opacity=".55"/><path d="M613.7 128.7c-.3-.6-.5-.1-.5 1.3 0 1.4.2 1.9.5 1.2.2-.6.2-1.8 0-2.5z" fill="#C8C8D1" fill-opacity=".11"/><path d="M469.6 108.3c-.3-.4-.6.2-.5 1.3 0 1.1.3 1.4.6.6.3-.7.2-1.6-.1-1.9z" fill="#383866" fill-opacity=".85"/><path d="M444.6 113.3c-.3-.4-.6.2-.5 1.3 0 1.1.3 1.4.6.6.3-.7.2-1.6-.1-1.9z" fill="#C1C1C9" fill-opacity=".13"/><path d="M39 114.2c-1.4 0-1.9.2-1.2.5.6.2 1.8.2 2.5 0 .6-.3.1-.5-1.3-.5zm11 0c-1.4 0-1.9.2-1.2.5.6.2 1.8.2 2.5 0 .6-.3.1-.5-1.3-.5z" fill="#FE9B65" fill-opacity=".92"/><path d="M34.5 114.2c-1.6 0-2.2.2-1.2.5.9.2 2.3.2 3 0 .6-.3-.1-.5-1.8-.5zm11.9-.1c-1.1 0-1.4.3-.6.6.7.3 1.6.2 1.9-.1.4-.3-.2-.6-1.3-.5z" fill="#FE9B64" fill-opacity=".92"/><path d="M578.7 114.7c-.3-.6-.5-.1-.5 1.3 0 1.4.2 1.9.5 1.2.2-.6.2-1.8 0-2.5z" fill="#3A3D62" fill-opacity=".6"/><path d="M662.6 114.3c-.3-.4-.6.2-.5 1.3 0 1.1.3 1.4.6.6.3-.7.2-1.6-.1-1.9z" fill="#353536" fill-opacity=".91"/><path d="M24 115.2c-1.9 0-2.7.2-1.7.5.9.2 2.5.2 3.5 0 .9-.3.1-.5-1.8-.5z" fill="#FBC9A3" fill-opacity=".24"/><path d="M31.4 115.1c-1.1 0-1.4.3-.6.6.7.3 1.6.2 1.9-.1.4-.3-.2-.6-1.3-.5z" fill="#F7CAA0" fill-opacity=".24"/><path d="M35.4 115.1c-1.1 0-1.4.3-.6.6.7.3 1.6.2 1.9-.1.4-.3-.2-.6-1.3-.5z" fill="#F7CAA5" fill-opacity=".24"/><path d="M39 115.2c-1.4 0-1.9.2-1.2.5.6.2 1.8.2 2.5 0 .6-.3.1-.5-1.3-.5zm9 0c-1.4 0-1.9.2-1.2.5.6.2 1.8.2 2.5 0 .6-.3.1-.5-1.3-.5z" fill="#FBCAA5" fill-opacity=".24"/><path d="M248.7 121.7c-.2-1.2-.4 0-.4 2.8 0 2.7.2 3.8.4 2.2.2-1.5.2-3.7 0-5z" fill="#F60"/><path d="M469.7 130.2c-.3-.9-.5.1-.4 2.3 0 2.2.2 3 .4 1.7.2-1.2.2-3 0-4z" fill="#A0A0A5" fill-opacity=".2"/><path d="M16.6 138.3c-.3-.4-.6.2-.5 1.3 0 1.1.3 1.4.6.6.3-.7.2-1.6-.1-1.9z" fill="#F9DCBF" fill-opacity=".17"/><path d="M526.6 138.3c-.3-.4-.6.2-.5 1.3 0 1.1.3 1.4.6.6.3-.7.2-1.6-.1-1.9z" fill="#95959B" fill-opacity=".5"/><path d="M468.7 140.7c-.3-.6-.5-.1-.5 1.3 0 1.4.2 1.9.5 1.2.2-.6.2-1.8 0-2.5z" fill="#363638" fill-opacity=".92"/><path d="M15.7 152.7c-.3-.6-.5-.1-.5 1.3 0 1.4.2 1.9.5 1.2.2-.6.2-1.8 0-2.5z" fill="#FEC76A" fill-opacity=".87"/></svg>