<svg version="1.0" xmlns="http://www.w3.org/2000/svg" viewBox="0 0 101 101"><path d="M33 25.5c-1.8 2.2-.7 12.4 1.9 17.8 1.2 2.4 2.1 4.6 2.1 5 0 .9 8.3 13.8 10.7 16.7 6 7.3 10.8 11.1 15.1 11.7 2.7.5 3.8.2 4.8-1.2 1.7-2.2 1.8-9.4.3-11.5-.8-1.1-.9-.4-.5 2.7.3 2.3.2 5.3-.4 6.7-1.7 4.6-8.2 1.6-17-8.2-4.4-4.7-11-14.5-11.4-16.6-.1-.6-.7-2-1.2-3.1-.6-1.1-1.9-4.8-2.8-8.3-1.4-5-1.5-7-.7-9.4 1.3-3.6.9-4.5-.9-2.3z" fill="#666"/><path d="M45.5 35c-5.3.5-6.1 1.5-5 5.9.5 1.9.9 2.1 1.5 1.1.4-.7.7-2.1.5-3.1-.2-1 .2-1.9.8-2.1 2.4-.8 26.7-.9 26.7-.1 0 .4-5.5 4.2-12.1 8.3-6.7 4.1-11.7 7.6-11.1 7.8.6.2 6.1-2.9 12.3-6.7C69.8 39.4 72 38.3 72 39.5 72 41 59.7 63 58.8 63c-.5 0-1.8-.5-2.8-1-1.2-.7-2.1-.7-2.5 0-.6.9 6.1 4.8 6.8 3.9.3-.2 4.1-7.5 8.7-16.2l8.2-15.8-13.3.3c-7.4.1-15.6.5-18.4.8zM28 59l-4 8h8.2c4.6 0 9-.5 9.8-1 1-.7-1.1-1-6.8-1H27l3.2-6.3c4.3-8.1 4.1-7.7 2.9-7.7-.6 0-2.9 3.6-5.1 8z" fill="#CCE5CC"/><path d="M49.7 36.8c-6.7.3-6.7.3-6.7 3.2 0 3.3-1.4 3.9-2.9 1.3-.8-1.6-1-1.4-1.6.9-.6 2.2.3 4.3 4 10.5C48.4 62.5 50.7 65 53.9 65c2.4 0 2.4-.1.5-1.4-2.6-2-1-3.2 2.1-1.6 1.4.7 2.7 1.1 2.9.9C60.5 61.7 71 41.2 71 40.2c0-.6-5.3 2.2-11.7 6.3-6.5 4-12.1 7.1-12.5 6.9-1.4-.9 0-2.1 11.2-9 6-3.8 11-7.2 11-7.7 0-.4-2.8-.7-6.3-.5-3.4.2-9.3.4-13 .6zM32 55.6c-1.9 4.3-3.6 8.1-3.8 8.6-.2.4 3.8.8 8.8.8h9.2l-1.6-2.3c-.9-1.2-2.9-4.5-4.5-7.2-1.7-2.8-3.4-5.6-3.8-6.3-.5-.9-2 1.3-4.3 6.4z" fill="#FFFFE5"/></svg>